<?xml version="1.0" encoding="UTF-8" standalone="no"?><!DOCTYPE svg PUBLIC "-//W3C//DTD SVG 1.1//EN" "http://www.w3.org/Graphics/SVG/1.1/DTD/svg11.dtd"><svg width="100%" height="100%" viewBox="0 0 641 360" version="1.1" xmlns="http://www.w3.org/2000/svg" xmlns:xlink="http://www.w3.org/1999/xlink" xml:space="preserve" xmlns:serif="http://www.serif.com/" style="fill-rule:evenodd;clip-rule:evenodd;stroke-linejoin:round;stroke-miterlimit:2;"><g id="Background"><clipPath id="_clip1"><rect x="0" y="0" width="640" height="360"/></clipPath><g clip-path="url(#_clip1)"><rect x="0" y="0" width="640" height="360" style="fill:#7908eb;"/><path d="M640,88.01l0,271.99l-640,0l0,-257.749l89.445,-24.525c7.452,-2.044 15.161,2.347 17.204,9.799l8.57,31.254l2.904,-10.837c1.458,-5.441 7.059,-8.675 12.5,-7.217l78.869,21.133c4.385,1.175 7.337,5.041 7.554,9.346l20.27,-14.987c3.17,-2.344 7.647,-1.673 9.991,1.497l15.94,21.56l14.237,-53.132c2.065,-7.709 10.001,-12.291 17.71,-10.225l89.224,23.908l56.447,-32.59c5.323,-3.073 12.139,-1.247 15.212,4.076l21.985,38.079l9.405,-35.099c1.591,-5.937 7.702,-9.465 13.638,-7.874l86.052,23.057c5.936,1.591 9.465,7.702 7.874,13.639l-0.996,3.716l41.055,-18.172c1.6,-0.709 3.299,-0.9 4.91,-0.647Z" style="fill:#9b08eb;"/><path d="M640,170.942l0,189.058l-640,-0l0,-172.922l24.167,10.697l85.575,-22.93c6.391,-1.712 12.97,2.086 14.682,8.477l6.266,23.382l30.236,-52.37c3.308,-5.73 10.646,-7.696 16.376,-4.388l60.768,35.084l96.053,-25.737c8.299,-2.224 16.842,2.708 19.066,11.007l6.925,25.846l11.724,-15.857c3.29,-4.449 9.573,-5.391 14.023,-2.101l33.553,24.808l-1.875,-6.996c-1.569,-5.858 1.912,-11.888 7.769,-13.457l84.906,-22.751c5.857,-1.569 11.887,1.912 13.457,7.77l3.673,13.707l6.525,-23.799c2.2,-8.022 10.499,-12.749 18.521,-10.55l87.61,24.022Z" style="fill:#b122ff;"/><path d="M640.924,205.549l0,154.451l-640.924,-0l0,-116.71l110.218,29.532l74.789,-43.179c8.082,-4.666 18.432,-1.893 23.098,6.19l53.655,92.933l22.115,-82.534c3.461,-12.917 16.759,-20.594 29.676,-17.133l172.474,46.214l-2.803,-36.245c-0.905,-11.698 7.858,-21.93 19.556,-22.835l138.146,-10.684Z" style="fill:#c04cff;"/></g></g></svg>