<?xml version="1.0" encoding="UTF-8" standalone="no"?>
<!DOCTYPE svg PUBLIC "-//W3C//DTD SVG 1.1//EN" "http://www.w3.org/Graphics/SVG/1.1/DTD/svg11.dtd">
<svg width="100%" height="100%" viewBox="0 0 100 100" version="1.1" xmlns="http://www.w3.org/2000/svg" xmlns:xlink="http://www.w3.org/1999/xlink" xml:space="preserve" xmlns:serif="http://www.serif.com/" style="fill-rule:evenodd;clip-rule:evenodd;stroke-linejoin:round;stroke-miterlimit:2;">
    <g id="background-pack-zacks-levels" transform="matrix(1,0,0,1,-270,-180)">
        <clipPath id="_clip1">
            <rect x="270" y="180" width="100" height="100"/>
        </clipPath>
        <g clip-path="url(#_clip1)">
            <g id="Background" transform="matrix(0.412391,0,0,0.682116,192.277,102.697)">
                <rect x="188.469" y="113.328" width="242.489" height="146.603" style="fill:rgb(98,208,109);"/>
            </g>
            <g transform="matrix(6.09522e-17,-1.52136,0.525933,-6.09522e-17,175.478,1720.32)">
                <path d="M989,265C989,280.454 984.663,293 979.32,293L942.68,293C937.337,293 933,280.454 933,265C933,249.546 937.337,237 942.68,237L979.32,237C984.663,237 989,249.546 989,265Z" style="fill:url(#_Linear2);"/>
            </g>
            <g transform="matrix(3.00965e-17,-1.19602,0.704504,-3.00965e-17,169.328,1410.37)">
                <path d="M989,265C989,280.454 981.61,293 972.507,293L949.493,293C940.39,293 933,280.454 933,265C933,249.546 940.39,237 949.493,237L972.507,237C981.61,237 989,249.546 989,265Z" style="fill:url(#_Linear3);"/>
            </g>
            <g transform="matrix(2.46306e-17,-1.15191,0.749661,-2.46306e-17,88.4333,1369.21)">
                <path d="M989,265C989,280.454 980.835,293 970.778,293L951.222,293C941.165,293 933,280.454 933,265C933,249.546 941.165,237 951.222,237L970.778,237C980.835,237 989,249.546 989,265Z" style="fill:url(#_Linear4);"/>
            </g>
            <g transform="matrix(2.65093e-17,-1.19602,0.763088,-2.65093e-17,120.991,1431.37)">
                <path d="M989,265C989,280.454 980.995,293 971.135,293L950.865,293C941.005,293 933,280.454 933,265C933,249.546 941.005,237 950.865,237L971.135,237C980.995,237 989,249.546 989,265Z" style="fill:url(#_Linear5);"/>
            </g>
            <g transform="matrix(-0.273766,0,-5.21779e-17,0.881713,630.174,43.0322)">
                <path d="M1100,252.402L1100,258.598C1100,260.475 1095.09,262 1089.04,262L1060.96,262C1054.91,262 1050,260.475 1050,258.598L1050,252.402C1050,250.525 1054.91,249 1060.96,249L1089.04,249C1095.09,249 1100,250.525 1100,252.402Z" style="fill:white;"/>
            </g>
            <g transform="matrix(-0.353766,0,-6.74253e-17,0.881713,745.125,24.574)">
                <path d="M1100,252.402L1100,258.598C1100,260.475 1096.2,262 1091.52,262L1058.48,262C1053.8,262 1050,260.475 1050,258.598L1050,252.402C1050,250.525 1053.8,249 1058.48,249L1091.52,249C1096.2,249 1100,250.525 1100,252.402Z" style="fill:white;"/>
            </g>
            <g transform="matrix(0.427614,0.246883,-0.440857,0.763586,-70.3657,-207.04)">
                <path d="M1100,252.402L1100,258.598C1100,260.475 1097.28,262 1093.92,262L1056.08,262C1052.72,262 1050,260.475 1050,258.598L1050,252.402C1050,250.525 1052.72,249 1056.08,249L1093.92,249C1097.28,249 1100,250.525 1100,252.402Z" style="fill:white;"/>
            </g>
            <g transform="matrix(-0.427614,0.246883,0.440857,0.763586,670.464,-187.415)">
                <path d="M1100,252.402L1100,258.598C1100,260.475 1097.28,262 1093.92,262L1056.08,262C1052.72,262 1050,260.475 1050,258.598L1050,252.402C1050,250.525 1052.72,249 1056.08,249L1093.92,249C1097.28,249 1100,250.525 1100,252.402Z" style="fill:white;"/>
            </g>
            <g transform="matrix(-0.273766,0,-1.73926e-17,0.266328,630.174,196.263)">
                <path d="M1100,255.5C1100,259.087 1097.17,262 1093.68,262L1056.32,262C1052.83,262 1050,259.087 1050,255.5C1050,251.913 1052.83,249 1056.32,249L1093.68,249C1097.17,249 1100,251.913 1100,255.5Z" style="fill:rgb(215,215,215);"/>
            </g>
            <g transform="matrix(-0.353766,0,-2.24751e-17,0.266328,745.125,177.805)">
                <path d="M1100,255.5C1100,259.087 1097.81,262 1095.11,262L1054.89,262C1052.19,262 1050,259.087 1050,255.5C1050,251.913 1052.19,249 1054.89,249L1095.11,249C1097.81,249 1100,251.913 1100,255.5Z" style="fill:rgb(215,215,215);"/>
            </g>
            <g transform="matrix(0.427614,0.246883,-0.133164,0.230647,-146.981,-74.3383)">
                <path d="M1100,255.5C1100,259.087 1098.43,262 1096.49,262L1053.51,262C1051.57,262 1050,259.087 1050,255.5C1050,251.913 1051.57,249 1053.51,249L1096.49,249C1098.43,249 1100,251.913 1100,255.5Z" style="fill:rgb(215,215,215);"/>
            </g>
            <g transform="matrix(-0.427614,0.246883,0.133164,0.230647,747.08,-54.7133)">
                <path d="M1100,255.5C1100,259.087 1098.43,262 1096.49,262L1053.51,262C1051.57,262 1050,259.087 1050,255.5C1050,251.913 1051.57,249 1053.51,249L1096.49,249C1098.43,249 1100,251.913 1100,255.5Z" style="fill:rgb(215,215,215);"/>
            </g>
            <g transform="matrix(0.219549,-0.126757,0.5,0.866025,-45.4703,179.487)">
                <path d="M1100,252L1100,259C1100,260.656 1094.7,262 1088.17,262L1061.83,262C1055.3,262 1050,260.656 1050,259L1050,252C1050,250.344 1055.3,249 1061.83,249L1088.17,249C1094.7,249 1100,250.344 1100,252Z" style="fill:rgb(255,203,76);"/>
            </g>
            <g transform="matrix(0.219549,-0.126757,0.153846,0.266469,40.722,328.777)">
                <path d="M1100,255.5C1100,259.087 1096.46,262 1092.11,262L1057.89,262C1053.54,262 1050,259.087 1050,255.5C1050,251.913 1053.54,249 1057.89,249L1092.11,249C1096.46,249 1100,251.913 1100,255.5Z" style="fill:rgb(255,143,65);"/>
            </g>
            <g transform="matrix(0.49485,0,0,0.650944,-241.436,38.5167)">
                <path d="M1100,255.5C1100,259.087 1096.17,262 1091.45,262L1058.55,262C1053.83,262 1050,259.087 1050,255.5C1050,251.913 1053.83,249 1058.55,249L1091.45,249C1096.17,249 1100,251.913 1100,255.5Z" style="fill:white;"/>
            </g>
            <g transform="matrix(0.49485,0,0,0.650944,-232.696,32.9816)">
                <path d="M1100,255.5C1100,259.087 1096.17,262 1091.45,262L1058.55,262C1053.83,262 1050,259.087 1050,255.5C1050,251.913 1053.83,249 1058.55,249L1091.45,249C1096.17,249 1100,251.913 1100,255.5Z" style="fill:white;"/>
            </g>
            <g transform="matrix(0.49485,0,0,0.650944,-188.659,27.915)">
                <path d="M1100,255.5C1100,259.087 1096.17,262 1091.45,262L1058.55,262C1053.83,262 1050,259.087 1050,255.5C1050,251.913 1053.83,249 1058.55,249L1091.45,249C1096.17,249 1100,251.913 1100,255.5Z" style="fill:white;"/>
            </g>
            <g transform="matrix(0.27485,0,0,0.650944,50.1415,32.9816)">
                <path d="M1100,255.5C1100,259.087 1093.1,262 1084.61,262L1065.39,262C1056.9,262 1050,259.087 1050,255.5C1050,251.913 1056.9,249 1065.39,249L1084.61,249C1093.1,249 1100,251.913 1100,255.5Z" style="fill:white;"/>
            </g>
        </g>
    </g>
    <defs>
        <linearGradient id="_Linear2" x1="0" y1="0" x2="1" y2="0" gradientUnits="userSpaceOnUse" gradientTransform="matrix(-56,-3.13002e-12,9.98754e-13,-177.233,989,265)"><stop offset="0" style="stop-color:rgb(123,196,109);stop-opacity:1"/><stop offset="1" style="stop-color:rgb(143,235,109);stop-opacity:1"/></linearGradient>
        <linearGradient id="_Linear3" x1="0" y1="0" x2="1" y2="0" gradientUnits="userSpaceOnUse" gradientTransform="matrix(-56,-3.13002e-12,9.98754e-13,-177.233,989,265)"><stop offset="0" style="stop-color:rgb(98,166,109);stop-opacity:1"/><stop offset="1" style="stop-color:rgb(98,208,109);stop-opacity:1"/></linearGradient>
        <linearGradient id="_Linear4" x1="0" y1="0" x2="1" y2="0" gradientUnits="userSpaceOnUse" gradientTransform="matrix(-56,-3.13002e-12,9.98754e-13,-177.233,989,265)"><stop offset="0" style="stop-color:rgb(98,166,109);stop-opacity:1"/><stop offset="1" style="stop-color:rgb(98,208,109);stop-opacity:1"/></linearGradient>
        <linearGradient id="_Linear5" x1="0" y1="0" x2="1" y2="0" gradientUnits="userSpaceOnUse" gradientTransform="matrix(-56,-3.13002e-12,9.98754e-13,-177.233,989,265)"><stop offset="0" style="stop-color:rgb(98,166,109);stop-opacity:1"/><stop offset="1" style="stop-color:rgb(98,208,109);stop-opacity:1"/></linearGradient>
    </defs>
</svg>
