<?xml version="1.0" encoding="UTF-8" standalone="no"?>
<!DOCTYPE svg PUBLIC "-//W3C//DTD SVG 1.1//EN" "http://www.w3.org/Graphics/SVG/1.1/DTD/svg11.dtd">
<svg width="100%" height="100%" viewBox="0 0 26 26" version="1.1" xmlns="http://www.w3.org/2000/svg" xmlns:xlink="http://www.w3.org/1999/xlink" xml:space="preserve" xmlns:serif="http://www.serif.com/" style="fill-rule:evenodd;clip-rule:evenodd;stroke-linecap:round;stroke-linejoin:round;stroke-miterlimit:1.5;">
    <g id="move" transform="matrix(1,0,0,1,-111,-375.2)">
        <g transform="matrix(0.416667,0,0,0.285714,111.583,384.486)">
            <path d="M17.8,6L22.6,13L17.8,20L5.8,20L5.8,6L17.8,6Z" style="fill:none;stroke:white;stroke-width:5.6px;"/>
        </g>
        <g transform="matrix(-0.416667,-5.10269e-17,3.49899e-17,-0.285714,136.417,391.914)">
            <path d="M17.8,6L22.6,13L17.8,20L5.8,20L5.8,6L17.8,6Z" style="fill:none;stroke:white;stroke-width:5.6px;"/>
        </g>
        <g transform="matrix(-7.65404e-17,0.416667,-0.285714,-5.24849e-17,127.714,375.783)">
            <path d="M17.8,6L22.6,13L17.8,20L5.8,20L5.8,6L17.8,6Z" style="fill:none;stroke:white;stroke-width:5.6px;"/>
        </g>
        <g transform="matrix(1.27567e-16,-0.416667,0.285714,8.74748e-17,120.286,400.617)">
            <path d="M17.8,6L22.6,13L17.8,20L5.8,20L5.8,6L17.8,6Z" style="fill:none;stroke:white;stroke-width:5.6px;"/>
        </g>
    </g>
</svg>
