<?xml version="1.0" encoding="utf-8"?>
<!-- Generator: Adobe Illustrator 24.2.0, SVG Export Plug-In . SVG Version: 6.00 Build 0)  -->
<svg version="1.1" id="Layer_1" xmlns="http://www.w3.org/2000/svg" xmlns:xlink="http://www.w3.org/1999/xlink" x="0px" y="0px"
	 viewBox="0 0 22.5 23.1" style="enable-background:new 0 0 22.5 23.1;" xml:space="preserve">
<style type="text/css">
	.st0{fill:none;}
	.st1{fill:#FFFFFF;}
	.st2{fill:none;stroke:#FFFFFF;stroke-width:2;stroke-linecap:round;stroke-linejoin:round;}
</style>
<g id="gear" transform="translate(-112.762 -376.639)">
	<g id="shapes" transform="translate(460.755 -1795.244)">
		<path class="st0" d="M-338.1,2192.9l-0.6-2.6c-1.1-0.3-2.1-0.9-2.9-1.7l-2.6,0.8c-0.6-0.7-1-1.5-1.4-2.4l2-1.9
			c-0.1-0.5-0.2-1.1-0.2-1.7c0-0.6,0.1-1.1,0.2-1.7l-2-1.9c0.3-0.9,0.8-1.7,1.4-2.4l2.6,0.8c0.8-0.8,1.8-1.3,2.9-1.7l0.6-2.6
			c0.5-0.1,0.9-0.1,1.4-0.1c0.5,0,0.9,0,1.4,0.1l0.6,2.6c1.1,0.3,2.1,0.9,2.9,1.7l2.6-0.8c0.6,0.7,1,1.5,1.4,2.4l-2,1.9
			c0.1,0.5,0.2,1.1,0.2,1.7c0,0.6-0.1,1.1-0.2,1.7l2,1.9c-0.3,0.9-0.8,1.7-1.4,2.4l-2.6-0.8c-0.8,0.8-1.8,1.3-2.9,1.7l-0.7,2.6
			c-0.5,0.1-0.9,0.1-1.4,0.1C-337.2,2193-337.7,2193-338.1,2192.9z"/>
		<path class="st1" d="M-336.8,2193c0.5,0,0.9,0,1.4-0.1l0.7-2.6c1.1-0.3,2.1-0.9,2.9-1.7l2.6,0.8c0.6-0.7,1-1.5,1.4-2.4l-2-1.9
			c0.1-0.5,0.2-1.1,0.2-1.7c0-0.6-0.1-1.1-0.2-1.7l2-1.9c-0.3-0.9-0.8-1.7-1.4-2.4l-2.6,0.8c-0.8-0.8-1.8-1.3-2.9-1.7l-0.6-2.6
			c-0.4-0.1-0.9-0.1-1.4-0.1c-0.5,0-0.9,0-1.4,0.1l-0.7,2.6c-1.1,0.3-2.1,0.9-2.9,1.7l-2.6-0.8c-0.6,0.7-1,1.5-1.4,2.4l2,1.9
			c-0.1,0.5-0.2,1.1-0.2,1.7c0,0.6,0.1,1.1,0.2,1.7l-2,1.9c0.3,0.9,0.8,1.7,1.4,2.4l2.6-0.8c0.8,0.8,1.8,1.3,2.9,1.7l0.6,2.6
			C-337.7,2193-337.2,2193-336.8,2193 M-336.8,2195c-0.5,0-1.1,0-1.7-0.1l-1.3-0.2l-0.3-1.3l-0.4-1.6c-0.6-0.3-1.1-0.6-1.7-1
			l-1.6,0.5l-1.3,0.4l-0.8-1.1c-0.7-0.9-1.2-1.8-1.7-2.9l-0.5-1.3l1-0.9l1.2-1.1c0-0.3-0.1-0.6-0.1-1c0-0.3,0-0.6,0-1l-1.2-1.1
			l-1-0.9l0.5-1.2c0.4-1,1-2,1.7-2.9l0.8-1.1l1.3,0.4l1.6,0.5c0.5-0.4,1.1-0.7,1.7-1l0.4-1.6l0.3-1.3l1.3-0.2
			c0.5-0.1,1.1-0.1,1.7-0.1c0.6,0,1.1,0,1.7,0.1l1.3,0.2l0.3,1.3l0.4,1.6c0.6,0.3,1.1,0.6,1.7,1l1.6-0.5l1.3-0.4l0.8,1.1
			c0.7,0.9,1.2,1.8,1.7,2.9l0.5,1.3l-1,0.9l-1.2,1.1c0,0.3,0.1,0.6,0.1,1c0,0.3,0,0.6-0.1,1l1.2,1.1l1,0.9l-0.5,1.2
			c-0.4,1-1,2-1.7,2.9l-0.8,1.1l-1.3-0.4l-1.6-0.5c-0.5,0.4-1.1,0.7-1.7,1l-0.4,1.6l-0.3,1.3l-1.3,0.2
			C-335.6,2195-336.2,2195-336.8,2195z"/>
	</g>
	<circle id="center" class="st2" cx="124" cy="388.2" r="3"/>
</g>
</svg>
