<?xml version="1.0" encoding="utf-8"?>
<!-- Generator: Adobe Illustrator 24.1.2, SVG Export Plug-In . SVG Version: 6.00 Build 0)  -->
<svg version="1.1" id="Layer_1" xmlns="http://www.w3.org/2000/svg" xmlns:xlink="http://www.w3.org/1999/xlink" x="0px" y="0px"
	 viewBox="0 0 504 504" style="enable-background:new 0 0 504 504;" xml:space="preserve">
<style type="text/css">
	.st0{fill:#231F20;}
	.st1{fill:#E5E5E5;}
</style>
<rect x="144" y="144" class="st0" width="18" height="9"/>
<rect x="72" y="72" class="st0" width="18" height="45"/>
<rect x="99" y="72" class="st0" width="18" height="45"/>
<rect x="90" y="108" class="st0" width="9" height="9"/>
<rect x="90" y="97.5" class="st0" width="9" height="4.5"/>
<rect x="90" y="102" class="st1" width="9" height="6"/>
<rect x="90" y="81" class="st1" width="9" height="16.5"/>
<rect x="90" y="72" class="st0" width="9" height="9"/>
<rect x="144" y="153" class="st0" width="9" height="9"/>
<rect x="180" y="153" class="st0" width="9" height="9"/>
<rect x="144" y="72" class="st0" width="45" height="9"/>
<rect x="144" y="90" class="st0" width="45" height="27"/>
<rect x="162" y="81" class="st0" width="9" height="9"/>
<rect x="171" y="144" class="st0" width="18" height="9"/>
<rect x="171" y="180" transform="matrix(-1 -1.224647e-16 1.224647e-16 -1 360 369)" class="st0" width="18" height="9"/>
<rect x="180" y="171" transform="matrix(-1 -1.224647e-16 1.224647e-16 -1 369 351)" class="st0" width="9" height="9"/>
<rect x="144" y="171" transform="matrix(-1 -1.224647e-16 1.224647e-16 -1 297 351)" class="st0" width="9" height="9"/>
<rect x="144" y="180" transform="matrix(-1 -1.224647e-16 1.224647e-16 -1 306 369)" class="st0" width="18" height="9"/>
<rect x="72" y="153" class="st0" width="18" height="9"/>
<rect x="81" y="144" class="st0" width="9" height="9"/>
<rect x="99" y="144" class="st0" width="9" height="9"/>
<rect x="99" y="153" class="st0" width="18" height="9"/>
<rect x="216" y="72" class="st0" width="45" height="9"/>
<rect x="216" y="81" class="st0" width="9" height="27"/>
<rect x="252" y="81" class="st0" width="9" height="27"/>
<rect x="234" y="90" class="st0" width="9" height="9"/>
<rect x="216" y="144" class="st0" width="9" height="9"/>
<rect x="225" y="153" class="st0" width="9" height="9"/>
<rect x="234" y="144" class="st0" width="9" height="9"/>
<rect x="243" y="153" class="st0" width="9" height="9"/>
<rect x="225" y="171" class="st0" width="9" height="9"/>
<rect x="243" y="171" class="st0" width="9" height="9"/>
<rect x="252" y="144" class="st0" width="9" height="9"/>
<rect x="216" y="162" class="st0" width="9" height="9"/>
<rect x="216" y="153" class="st1" width="9" height="9"/>
<rect x="225" y="144" class="st1" width="9" height="9"/>
<rect x="234" y="153" class="st1" width="9" height="9"/>
<rect x="243" y="144" class="st1" width="9" height="9"/>
<rect x="252" y="153" class="st1" width="9" height="9"/>
<rect x="216" y="171" class="st1" width="9" height="9"/>
<rect x="225" y="162" class="st1" width="9" height="9"/>
<rect x="234" y="171" class="st1" width="9" height="9"/>
<rect x="243" y="162" class="st1" width="9" height="9"/>
<rect x="252" y="171" class="st1" width="9" height="9"/>
<rect x="225" y="180" class="st1" width="9" height="9"/>
<rect x="243" y="180" class="st1" width="9" height="9"/>
<rect x="234" y="162" class="st0" width="9" height="9"/>
<rect x="252" y="162" class="st0" width="9" height="9"/>
<rect x="216" y="180" class="st0" width="9" height="9"/>
<rect x="234" y="180" class="st0" width="9" height="9"/>
<rect x="252" y="180" class="st0" width="9" height="9"/>
<rect x="216" y="108" class="st0" width="45" height="9"/>
<rect x="99" y="171" transform="matrix(-1 -1.224647e-16 1.224647e-16 -1 216 351)" class="st0" width="18" height="9"/>
<rect x="99" y="180" transform="matrix(-1 -1.224647e-16 1.224647e-16 -1 207 369)" class="st0" width="9" height="9"/>
<rect x="81" y="180" transform="matrix(-1 -1.224647e-16 1.224647e-16 -1 171 369)" class="st0" width="9" height="9"/>
<rect x="72" y="171" transform="matrix(-1 -1.224647e-16 1.224647e-16 -1 162 351)" class="st0" width="18" height="9"/>
<polygon class="st0" points="299.3,72 288,117 310.5,117 "/>
<polygon class="st0" points="321.8,72 310.5,117 333,117 "/>
</svg>
