<?xml version="1.0" encoding="UTF-8" standalone="no"?>
<!DOCTYPE svg PUBLIC "-//W3C//DTD SVG 1.1//EN" "http://www.w3.org/Graphics/SVG/1.1/DTD/svg11.dtd">
<svg width="100%" height="100%" viewBox="0 0 100 100" version="1.1" xmlns="http://www.w3.org/2000/svg" xmlns:xlink="http://www.w3.org/1999/xlink" xml:space="preserve" xmlns:serif="http://www.serif.com/" style="fill-rule:evenodd;clip-rule:evenodd;stroke-linejoin:round;stroke-miterlimit:2;">
    <g id="Background-Forest" serif:id="Background Forest" transform="matrix(0.169168,0,0,0.169106,-11.3683,3.64141)">
        <g id="Background-Forest1" serif:id="Background Forest">
            <g id="Layer-1" serif:id="Layer 1" transform="matrix(1.01697,0,0,1.22606,-7.80764,-48.6039)">
                <rect x="0" y="0" width="920" height="430" style="fill:rgb(168,225,72);"/>
                <g transform="matrix(1.60764,0,0,1.01535,-949.944,84.859)">
                    <path d="M710.247,440.98C696.907,478.767 667.767,505 634,505C587.639,505 550,455.55 550,394.641L550,205.359C550,144.45 587.639,95 634,95C658.716,95 680.953,109.054 696.33,131.407C703.646,110.682 715.716,93.432 730.696,82.08L721.327,82.08L728.87,62.268L724.328,62.268L736.419,30.509L748.51,62.268L743.969,62.268L747.781,72.282C755.62,69.1 763.947,67.387 772.577,67.387C810.01,67.387 841.757,99.625 852.596,144.104C861.624,139.344 871.48,136.725 881.797,136.725C883.557,136.725 885.304,136.801 887.036,136.952L887.036,124.757L877.172,124.757L884.714,104.945L880.173,104.945L892.264,73.186L904.355,104.945L899.814,104.945L907.357,124.757L895.982,124.757L895.982,138.407C903.073,140.109 909.832,143.064 916.122,147.091C917.149,118.616 926.979,93.147 942.112,75.283L942.112,61.646L935.527,61.646L940.562,48.42L937.531,48.42L945.602,27.219L953.674,48.42L950.642,48.42L955.677,61.646L948.084,61.646L948.084,68.896C961.103,56.307 977.18,48.865 994.57,48.865C1037.92,48.865 1073.11,95.099 1073.11,152.047L1073.11,329.019C1073.11,385.967 1037.92,432.201 994.57,432.201C982.265,432.201 970.617,428.475 960.244,421.836C958.273,476.486 923.878,520.061 881.797,520.061C851.498,520.061 825.184,497.472 812.088,464.423C800.308,472.696 786.856,477.387 772.577,477.387C747.861,477.387 725.624,463.332 710.247,440.98Z" style="fill:rgb(141,210,27);"/>
                </g>
                <g transform="matrix(8.93682,0,0,7.73511,-147.353,88.0685)">
                    <path d="M83.953,23L83,23L85.127,18.746L87.254,23L86.3,23L87.254,24.907L85.936,24.907L85.936,28.258L84.317,28.258L84.317,24.907L83,24.907L83.953,23Z" style="fill:rgb(111,187,0);"/>
                </g>
                <g transform="matrix(7.17917,0,0,6.21381,-456.229,116.588)">
                    <path d="M83.953,23L83,23L85.127,18.746L87.254,23L86.3,23L87.254,24.907L85.936,24.907L85.936,28.258L84.317,28.258L84.317,24.907L83,24.907L83.953,23Z" style="fill:rgb(111,187,0);"/>
                </g>
                <g transform="matrix(1.4722,0,0,0.929808,-809.708,196.973)">
                    <g transform="matrix(3.7882,0,0,4.97694,510.409,-157.254)">
                        <path d="M40,64.5L40,105.5C40,114.607 32.607,122 23.5,122C14.393,122 7,114.607 7,105.5L7,64.5C7,55.393 14.393,48 23.5,48C32.607,48 40,55.393 40,64.5Z" style="fill:rgb(111,187,0);"/>
                    </g>
                    <g transform="matrix(4.32175,0,0,5.67792,580.468,-190.9)">
                        <path d="M40,64.5L40,105.5C40,114.607 32.607,122 23.5,122C14.393,122 7,114.607 7,105.5L7,64.5C7,55.393 14.393,48 23.5,48C32.607,48 40,55.393 40,64.5Z" style="fill:rgb(111,187,0);"/>
                    </g>
                    <g transform="matrix(4.32175,0,0,5.67792,685.847,-145.371)">
                        <path d="M40,64.5L40,105.5C40,114.607 32.607,122 23.5,122C14.393,122 7,114.607 7,105.5L7,64.5C7,55.393 14.393,48 23.5,48C32.607,48 40,55.393 40,64.5Z" style="fill:rgb(111,187,0);"/>
                    </g>
                    <g transform="matrix(4.32175,0,0,5.67792,813.498,-158.365)">
                        <path d="M40,64.5L40,105.5C40,114.607 32.607,122 23.5,122C14.393,122 7,114.607 7,105.5L7,64.5C7,55.393 14.393,48 23.5,48C32.607,48 40,55.393 40,64.5Z" style="fill:rgb(111,187,0);"/>
                    </g>
                    <g transform="matrix(4.32175,0,0,5.67792,902.05,-180.222)">
                        <path d="M40,64.5L40,105.5C40,114.607 32.607,122 23.5,122C14.393,122 7,114.607 7,105.5L7,64.5C7,55.393 14.393,48 23.5,48C32.607,48 40,55.393 40,64.5Z" style="fill:rgb(111,187,0);"/>
                    </g>
                </g>
                <g transform="matrix(1.32002,0,0,0.625318,-737.636,349.488)">
                    <path d="M700.436,447.871C685.065,482.617 661.013,505 634,505C587.639,505 550,439.071 550,357.866L550,242.134C550,160.929 587.639,95 634,95C636.16,95 638.302,95.143 640.422,95.424L640.422,54.482L624.988,54.482L636.789,13.156L629.684,13.156L648.601,-53.089L667.518,13.156L660.413,13.156L672.214,54.482L654.418,54.482L654.418,99.385C667.749,105.225 679.822,116.65 689.779,132.157C705.149,97.411 729.201,75.028 756.214,75.028C772.517,75.028 787.741,83.18 800.629,97.282C814.819,83.12 831.236,75.027 848.723,75.027C888.031,75.027 921.929,115.918 937.298,174.719C948.722,141.158 966.538,115.033 987.794,101.515L974.449,101.515L986.25,60.189L979.145,60.189L998.062,-6.056L1016.98,60.189L1009.87,60.189L1018.78,91.374C1019.51,91.346 1020.25,91.331 1020.99,91.331C1074.72,91.331 1118.35,167.747 1118.35,261.869L1118.35,396.01C1118.35,490.132 1074.72,566.548 1020.99,566.548C981.678,566.548 947.78,525.657 932.411,466.856C915.419,516.775 884.285,550.244 848.723,550.244C817.072,550.244 788.929,523.733 771.142,482.708C766.297,484.232 761.308,485.028 756.214,485.028C734.815,485.028 715.275,470.982 700.436,447.871Z" style="fill:rgb(78,162,0);"/>
                </g>
            </g>
            <g id="Cloud" transform="matrix(0.928177,0,0,0.928177,-691.103,-171.385)">
                <g transform="matrix(0.609756,0,0,1,360.908,-76.8235)">
                    <path d="M764.189,374L675.712,374C660.149,374 647.515,366.293 647.515,356.8L647.515,348.2C647.515,338.707 660.149,331 675.712,331L700,331L700,324.2C700,314.707 712.635,307 728.198,307L794.802,307C810.365,307 823,314.707 823,324.2L823,331L916.157,331C931.72,331 944.354,338.707 944.354,348.2L944.354,356.8C944.354,366.293 931.72,374 916.157,374L886.731,374C886.882,374.72 886.96,375.455 886.96,376.2L886.96,384.8C886.96,394.293 874.325,402 858.762,402L792.158,402C776.595,402 763.96,394.293 763.96,384.8L763.96,376.2C763.96,375.455 764.038,374.72 764.189,374Z" style="fill:rgb(245,255,229);"/>
                </g>
                <g transform="matrix(0.768072,0,0,1.57455,861.61,-302.825)">
                    <path d="M821.899,337.079C839.763,337.913 853.751,345.266 853.751,354.2L853.751,362.8C853.751,372.293 837.958,380 818.504,380L681.948,380C662.494,380 646.701,372.293 646.701,362.8L646.701,354.2C646.701,344.707 662.494,337 681.948,337L701.06,337C700.368,335.656 700,334.249 700,332.8L700,324.2C700,314.707 715.794,307 735.247,307L787.753,307C807.206,307 823,314.707 823,324.2L823,332.8C823,334.277 822.618,335.711 821.899,337.079Z" style="fill:rgb(245,255,229);"/>
                </g>
                <g transform="matrix(0.435003,0,0,1.09195,828.744,-183.671)">
                    <path d="M822.253,336L830.041,336C853.863,336 873.202,343.707 873.202,353.2L873.202,361.8C873.202,371.293 853.863,379 830.041,379L572.465,379C548.644,379 529.304,371.293 529.304,361.8L529.304,353.2C529.304,343.707 548.644,336 572.465,336L584.601,336C584.554,335.6 584.53,335.198 584.53,334.793L584.53,317.211C584.53,303.298 612.875,292.002 647.787,292.002L679.416,292.002C705.356,292.002 727.671,298.238 737.427,307.151C739.303,307.051 741.216,307 743.16,307L779.84,307C803.661,307 823,314.707 823,324.2L823,332.8C823,333.893 822.743,334.963 822.253,336Z" style="fill:rgb(245,255,229);"/>
                </g>
            </g>
        </g>
        <g id="Phone" transform="matrix(0.965926,-0.258914,0.258724,0.965926,-85.2635,12.6308)">
            <g transform="matrix(5.6868,0,0,5.76922,35.5497,-0.187184)">
                <path d="M96,31.15L96,59.85C96,63.244 93.205,66 89.763,66L23.237,66C19.795,66 17,63.244 17,59.85L17,31.15C17,27.756 19.795,25 23.237,25L89.763,25C93.205,25 96,27.756 96,31.15Z"/>
            </g>
            <g transform="matrix(1.89161,0,0,1.8923,-325.308,-184.745)">
                <clipPath id="_clip1">
                    <path d="M473.125,192.5L473.125,280C473.125,286.899 467.524,292.5 460.625,292.5L260.625,292.5C253.726,292.5 248.125,286.899 248.125,280L248.125,192.5C248.125,185.601 253.726,180 260.625,180L460.625,180C467.524,180 473.125,185.601 473.125,192.5Z"/>
                </clipPath>
                <g clip-path="url(#_clip1)">
                    <g id="Background" transform="matrix(0.412391,0,0,0.682116,192.277,102.697)">
                        <g transform="matrix(2.24999,0,0,1.125,-288.629,-14.1657)">
                            <rect x="188.469" y="113.328" width="242.489" height="146.603" style="fill:rgb(85,3,168);"/>
                        </g>
                        <g transform="matrix(1.19315e-16,-1.95942,1.29242,-7.21352e-17,-96.0981,2095.81)">
                            <path d="M989,245.4L989,284.6C989,289.236 987.499,293 985.65,293L936.35,293C934.501,293 933,289.236 933,284.6L933,245.4C933,240.764 934.501,237 936.35,237L985.65,237C987.499,237 989,240.764 989,245.4Z" style="fill:url(#_Linear2);"/>
                        </g>
                        <g transform="matrix(1.19315e-16,-1.95942,1.29242,-7.21352e-17,274.73,2102.7)">
                            <path d="M989,245.4L989,284.6C989,289.236 987.499,293 985.65,293L936.35,293C934.501,293 933,289.236 933,284.6L933,245.4C933,240.764 934.501,237 936.35,237L985.65,237C987.499,237 989,240.764 989,245.4Z" style="fill:url(#_Linear3);"/>
                        </g>
                        <g transform="matrix(9.01494e-17,-1.30495,0.686198,-5.45022e-17,151.109,1480.24)">
                            <path d="M989,245.4L989,284.6C989,289.236 987.803,293 986.33,293L935.67,293C934.197,293 933,289.236 933,284.6L933,245.4C933,240.764 934.197,237 935.67,237L986.33,237C987.803,237 989,240.764 989,245.4Z" style="fill:url(#_Linear4);"/>
                        </g>
                        <g transform="matrix(5.3232e-17,-0.835726,0.512991,-3.21828e-17,173.77,1044.09)">
                            <path d="M989,245.4L989,284.6C989,289.236 987.603,293 985.883,293L936.117,293C934.397,293 933,289.236 933,284.6L933,245.4C933,240.764 934.397,237 936.117,237L985.883,237C987.603,237 989,240.764 989,245.4Z" style="fill:url(#_Linear5);"/>
                        </g>
                        <g transform="matrix(1.35224e-16,-1.67145,0.556292,-8.17533e-17,255.139,1823.83)">
                            <path d="M989,245.4L989,284.6C989,289.236 988.243,293 987.31,293L934.69,293C933.757,293 933,289.236 933,284.6L933,245.4C933,240.764 933.757,237 934.69,237L987.31,237C988.243,237 989,240.764 989,245.4Z" style="fill:url(#_Linear6);"/>
                        </g>
                        <g transform="matrix(1.35224e-16,-1.67145,0.556292,-8.17533e-17,323.791,1841.51)">
                            <path d="M989,245.4L989,284.6C989,289.236 988.243,293 987.31,293L934.69,293C933.757,293 933,289.236 933,284.6L933,245.4C933,240.764 933.757,237 934.69,237L987.31,237C988.243,237 989,240.764 989,245.4Z" style="fill:url(#_Linear7);"/>
                        </g>
                        <g transform="matrix(1.46543,0,0,0.885966,-1355.13,-34.7802)">
                            <path d="M1131.94,192.888C1132.09,192.527 1132.44,192.291 1132.83,192.291C1133.23,192.291 1133.58,192.527 1133.73,192.888L1135.6,197.356L1140.07,199.228C1140.43,199.379 1140.67,199.733 1140.67,200.126C1140.67,200.518 1140.43,200.872 1140.07,201.024L1135.6,202.896L1133.73,207.363C1133.58,207.725 1133.23,207.96 1132.83,207.96C1132.44,207.96 1132.09,207.725 1131.94,207.363L1130.07,202.896L1125.6,201.024C1125.24,200.872 1125,200.518 1125,200.126C1125,199.733 1125.24,199.379 1125.6,199.228L1130.07,197.356L1131.94,192.888Z" style="fill:white;"/>
                        </g>
                        <g transform="matrix(1.46543,0,0,0.885966,-1037.85,26.3751)">
                            <path d="M1131.94,192.888C1132.09,192.527 1132.44,192.291 1132.83,192.291C1133.23,192.291 1133.58,192.527 1133.73,192.888L1135.6,197.356L1140.07,199.228C1140.43,199.379 1140.67,199.733 1140.67,200.126C1140.67,200.518 1140.43,200.872 1140.07,201.024L1135.6,202.896L1133.73,207.363C1133.58,207.725 1133.23,207.96 1132.83,207.96C1132.44,207.96 1132.09,207.725 1131.94,207.363L1130.07,202.896L1125.6,201.024C1125.24,200.872 1125,200.518 1125,200.126C1125,199.733 1125.24,199.379 1125.6,199.228L1130.07,197.356L1131.94,192.888Z" style="fill:white;"/>
                        </g>
                        <g transform="matrix(1.46543,0,0,0.885966,-1479.72,-19.4078)">
                            <path d="M1131.94,192.888C1132.09,192.527 1132.44,192.291 1132.83,192.291C1133.23,192.291 1133.58,192.527 1133.73,192.888L1135.6,197.356L1140.07,199.228C1140.43,199.379 1140.67,199.733 1140.67,200.126C1140.67,200.518 1140.43,200.872 1140.07,201.024L1135.6,202.896L1133.73,207.363C1133.58,207.725 1133.23,207.96 1132.83,207.96C1132.44,207.96 1132.09,207.725 1131.94,207.363L1130.07,202.896L1125.6,201.024C1125.24,200.872 1125,200.518 1125,200.126C1125,199.733 1125.24,199.379 1125.6,199.228L1130.07,197.356L1131.94,192.888Z" style="fill:white;"/>
                        </g>
                    </g>
                    <g transform="matrix(0.604234,0,0,0.604234,-348.14,-615.291)">
                        <g id="Cube" transform="matrix(1,2.77556e-17,2.498e-16,1,-46.5464,15.5155)">
                            <g transform="matrix(5.81725,2.01826e-17,-2.56168e-16,9.22943,903.058,949.082)">
                                <path d="M35.735,49.863L35.735,54.346C35.735,54.965 34.938,55.467 33.957,55.467L9.063,55.467C8.082,55.467 7.285,54.965 7.285,54.346L7.285,49.863C7.285,49.245 8.082,48.742 9.063,48.742L33.957,48.742C34.938,48.742 35.735,49.245 35.735,49.863Z"/>
                            </g>
                            <g transform="matrix(5.09009,0,0,6.15295,918.699,1109.38)">
                                <path d="M35.735,49.583L35.735,54.626C35.735,55.09 35.28,55.467 34.719,55.467L8.301,55.467C7.74,55.467 7.285,55.09 7.285,54.626L7.285,49.583C7.285,49.119 7.74,48.742 8.301,48.742L34.719,48.742C35.28,48.742 35.735,49.119 35.735,49.583Z" style="fill:white;"/>
                            </g>
                            <g transform="matrix(5.09009,0,0,1.56245,918.699,1333.07)">
                                <path d="M35.735,52.053L35.735,52.157C35.735,53.984 35.28,55.467 34.719,55.467L8.301,55.467C7.74,55.467 7.285,53.984 7.285,52.157L7.285,52.053C7.285,50.226 7.74,48.742 8.301,48.742L34.719,48.742C35.28,48.742 35.735,50.226 35.735,52.053Z" style="fill:rgb(215,215,215);"/>
                            </g>
                        </g>
                        <g id="Cube1" serif:id="Cube" transform="matrix(1,2.77556e-17,-2.22045e-16,1,294.795,-62.0621)">
                            <g transform="matrix(5.81725,2.01826e-17,2.27705e-16,9.22943,903.058,949.082)">
                                <path d="M35.735,49.863L35.735,54.346C35.735,54.965 34.938,55.467 33.957,55.467L9.063,55.467C8.082,55.467 7.285,54.965 7.285,54.346L7.285,49.863C7.285,49.245 8.082,48.742 9.063,48.742L33.957,48.742C34.938,48.742 35.735,49.245 35.735,49.863Z"/>
                            </g>
                            <g transform="matrix(5.09009,0,0,6.15295,918.699,1109.38)">
                                <path d="M35.735,49.583L35.735,54.626C35.735,55.09 35.28,55.467 34.719,55.467L8.301,55.467C7.74,55.467 7.285,55.09 7.285,54.626L7.285,49.583C7.285,49.119 7.74,48.742 8.301,48.742L34.719,48.742C35.28,48.742 35.735,49.119 35.735,49.583Z" style="fill:white;"/>
                            </g>
                            <g transform="matrix(5.09009,0,0,1.56245,918.699,1333.07)">
                                <path d="M35.735,52.053L35.735,52.157C35.735,53.984 35.28,55.467 34.719,55.467L8.301,55.467C7.74,55.467 7.285,53.984 7.285,52.157L7.285,52.053C7.285,50.226 7.74,48.742 8.301,48.742L34.719,48.742C35.28,48.742 35.735,50.226 35.735,52.053Z" style="fill:rgb(215,215,215);"/>
                            </g>
                        </g>
                        <g id="Player" transform="matrix(0.00542446,-0.00145348,0.00145348,0.00542446,1107.69,1372.08)">
                            <g transform="matrix(28.7794,4.83177e-30,8.18443e-29,28.7794,-931.323,-689.859)">
                                <path d="M512,64L512,448C512,483.323 483.323,512 448,512L64,512C28.677,512 0,483.323 0,448L0,64C0,28.677 28.677,0 64,0L448,0C483.323,0 512,28.677 512,64Z"/>
                            </g>
                            <g transform="matrix(21.5493,0,-1.97215e-31,21.5493,919.578,1161.04)">
                                <path d="M512,42.736L512,469.264C512,492.85 492.85,512 469.264,512L42.736,512C19.15,512 0,492.85 0,469.264L0,42.736C0,19.15 19.15,0 42.736,0L469.264,0C492.85,0 512,19.15 512,42.736Z" style="fill:rgb(255,203,76);"/>
                            </g>
                            <g transform="matrix(21.5493,0,0,21.5493,3533.89,10566.3)">
                                <path d="M0,-145.689C-7.369,-146.643 -13.763,-140.517 -13.053,-133.122C-5.837,-57.881 57.552,0.954 134.683,0.954C211.813,0.954 275.202,-57.881 282.419,-133.122C283.128,-140.517 276.734,-146.643 269.365,-145.689L250.389,-143.235C173.571,-133.297 95.794,-133.297 18.977,-143.235L0,-145.689Z" style="fill:rgb(101,71,27);fill-rule:nonzero;"/>
                            </g>
                            <g transform="matrix(21.5493,0,0,21.5493,4906.16,4732.69)">
                                <path d="M0,50.424C8.841,53.783 17.562,45.184 14.292,36.31C5.761,13.154 -16.499,-3.359 -42.615,-3.359C-68.732,-3.359 -90.992,13.154 -99.523,36.31C-102.792,45.184 -94.072,53.783 -85.231,50.424C-57.779,39.991 -27.452,39.991 0,50.424" style="fill:rgb(101,71,27);fill-rule:nonzero;"/>
                            </g>
                            <g transform="matrix(0,-21.5493,-21.5493,0,8541.19,3421.03)">
                                <path d="M-82.975,-82.974C-37.15,-82.974 0,-45.826 0,0.001C0,45.825 -37.15,82.975 -82.975,82.975C-128.8,82.975 -165.949,45.825 -165.949,0.001C-165.949,-45.826 -128.8,-82.974 -82.975,-82.974" style="fill:rgb(244,247,249);fill-rule:nonzero;"/>
                            </g>
                            <g transform="matrix(0,-21.5493,-21.5493,0,8541.19,4525.88)">
                                <path d="M-31.704,-31.703C-14.194,-31.703 0,-17.51 0,0C0,17.51 -14.194,31.704 -31.704,31.704C-49.213,31.704 -63.407,17.51 -63.407,0C-63.407,-17.51 -49.213,-31.703 -31.704,-31.703" style="fill:rgb(41,47,51);fill-rule:nonzero;"/>
                            </g>
                            <g transform="matrix(0,-21.5493,-21.5493,0,9067.22,4254.82)">
                                <path d="M-19.872,-19.872C-8.897,-19.872 0,-10.976 0,0C0,10.976 -8.897,19.872 -19.872,19.872C-30.847,19.872 -39.744,10.976 -39.744,0C-39.744,-10.976 -30.847,-19.872 -19.872,-19.872" style="fill:rgb(244,247,249);fill-rule:nonzero;"/>
                            </g>
                            <g transform="matrix(21.5493,0,0,21.5493,4837.03,11048)">
                                <path d="M0,-109.097L0,-43.625C0,-2.706 32.729,31.211 73.647,31.514C114.891,31.82 148.42,-1.521 148.42,-42.694L148.42,-109.097C148.42,-126.67 134.174,-140.917 116.601,-140.917L31.819,-140.917C14.246,-140.917 0,-126.67 0,-109.097" style="fill:rgb(232,89,110);fill-rule:nonzero;"/>
                            </g>
                            <g transform="matrix(21.5493,0,0,21.5493,6272.59,11067.3)">
                                <path d="M0,-141.812L0,-7.592C0,-3.399 3.399,0 7.593,0C11.786,0 15.186,-3.399 15.186,-7.592L15.186,-141.812L0,-141.812Z" style="fill:rgb(221,47,69);fill-rule:nonzero;"/>
                            </g>
                        </g>
                    </g>
                </g>
            </g>
            <g transform="matrix(7.68467,0,-2.95564,7.60301,130.452,-18.999)">
                <rect x="26" y="23" width="10" height="28" style="fill:url(#_Linear8);"/>
            </g>
            <g transform="matrix(3.54677,0,-2.95564,7.60301,338.529,-18.999)">
                <rect x="26" y="23" width="10" height="28" style="fill:url(#_Linear9);"/>
            </g>
        </g>
        <g id="Hand" transform="matrix(0.954803,-0.255932,0.258356,0.964552,-70.7473,141.745)">
            <g transform="matrix(22.5088,0,0,4.92788,-921.815,46.2245)">
                <path d="M58.121,53.048L58.121,31.85C58.121,27.214 58.944,23.45 59.959,23.45C60.974,23.45 61.797,27.214 61.797,31.85L61.797,44.175C61.859,44.146 61.922,44.131 61.986,44.131C62.659,44.131 63.248,45.789 63.568,48.259C63.697,48.128 63.831,48.059 63.969,48.059C64.738,48.059 65.398,50.227 65.672,53.297L65.687,53.297C66.702,53.297 67.525,57.061 67.525,61.697L67.525,72.826C67.525,77.243 66.931,81.031 66.089,82.612C66.188,83.71 66.242,84.914 66.242,86.174C66.242,91.35 65.323,95.553 64.19,95.553L60.173,95.553C59.04,95.553 58.121,91.35 58.121,86.174C58.121,85.095 58.161,84.059 58.234,83.094C57.46,82.222 56.84,79.571 56.592,76.146L56.59,76.126C56.552,75.71 56.52,75.274 56.496,74.821L55.886,63.15C55.65,58.641 56.26,54.105 57.247,53.027C57.544,52.702 57.843,52.728 58.121,53.048Z"/>
            </g>
            <g transform="matrix(22.5088,0,0,4.92788,-921.815,46.2245)">
                <path d="M67,65.174L67,72.826C67,77.337 66.19,81 65.193,81L58.807,81C57.81,81 57,77.337 57,72.826L57,65.174C57,60.663 57.81,57 58.807,57L65.193,57C66.19,57 67,60.663 67,65.174Z" style="fill:white;"/>
            </g>
            <g transform="matrix(5.91128,0,0,8.68146,61.29,-321.233)">
                <path d="M67,60.371L67,77.629C67,79.489 64.76,81 62,81C59.24,81 57,79.489 57,77.629L57,60.371C57,58.511 59.24,57 62,57C64.76,57 67,58.511 67,60.371Z" style="fill:white;"/>
            </g>
            <g transform="matrix(5.91128,0,0,4.57864,106.91,14.5412)">
                <path d="M67,63.392L67,74.608C67,78.136 64.76,81 62,81C59.24,81 57,78.136 57,74.608L57,63.392C57,59.864 59.24,57 62,57C64.76,57 67,59.864 67,63.392Z" style="fill:white;"/>
            </g>
            <g transform="matrix(5.91128,0,0,4.57864,151.539,33.899)">
                <path d="M67,63.392L67,74.608C67,78.136 64.76,81 62,81C59.24,81 57,78.136 57,74.608L57,63.392C57,59.864 59.24,57 62,57C64.76,57 67,59.864 67,63.392Z" style="fill:white;"/>
            </g>
            <g transform="matrix(5.91128,0,0,4.57864,190.217,59.7095)">
                <path d="M67,63.392L67,74.608C67,78.136 64.76,81 62,81C59.24,81 57,78.136 57,74.608L57,63.392C57,59.864 59.24,57 62,57C64.76,57 67,59.864 67,63.392Z" style="fill:white;"/>
            </g>
            <g transform="matrix(5.74934,-1.37469,1.14515,4.79287,-52.2476,131.076)">
                <path d="M67,62.946L67,75.054C67,78.336 64.76,81 62,81C59.24,81 57,78.336 57,75.054L57,62.946C57,59.664 59.24,57 62,57C64.76,57 67,59.664 67,62.946Z" style="fill:white;"/>
            </g>
            <g transform="matrix(15.9162,0,0,2.86569,-508.989,273.149)">
                <path d="M67,69C67,75.623 66.022,81 64.818,81L59.182,81C57.978,81 57,75.623 57,69C57,62.377 57.978,57 59.182,57L64.818,57C66.022,57 67,62.377 67,69Z" style="fill:white;"/>
            </g>
            <g transform="matrix(11.8997,0,0,2.71033,-259.743,295.695)">
                <path d="M57.53,67.285C57.72,61.473 58.859,57 60.235,57L63.765,57C65.141,57 66.28,61.473 66.47,67.285C65.994,63.742 65.117,61.364 64.114,61.364L59.886,61.364C58.883,61.364 58.006,63.742 57.53,67.285Z"/>
            </g>
            <g transform="matrix(5.91128,0,0,5.91345,67.2012,-21.5333)">
                <path d="M56,57.183L56,68.234L54,57.455L56,57.183Z"/>
            </g>
            <g transform="matrix(5.91128,0,0,5.91345,67.2012,-21.5333)">
                <path d="M66,48L66,57.183L68,49.422L66,48Z"/>
            </g>
        </g>
    </g>
    <defs>
        <linearGradient id="_Linear2" x1="0" y1="0" x2="1" y2="0" gradientUnits="userSpaceOnUse" gradientTransform="matrix(56,0,0,56,933,265)"><stop offset="0" style="stop-color:rgb(85,3,168);stop-opacity:1"/><stop offset="1" style="stop-color:rgb(155,8,235);stop-opacity:1"/></linearGradient>
        <linearGradient id="_Linear3" x1="0" y1="0" x2="1" y2="0" gradientUnits="userSpaceOnUse" gradientTransform="matrix(56,0,0,56,933,265)"><stop offset="0" style="stop-color:rgb(85,3,168);stop-opacity:1"/><stop offset="1" style="stop-color:rgb(155,8,235);stop-opacity:1"/></linearGradient>
        <linearGradient id="_Linear4" x1="0" y1="0" x2="1" y2="0" gradientUnits="userSpaceOnUse" gradientTransform="matrix(56,0,0,56,933,265)"><stop offset="0" style="stop-color:rgb(85,3,168);stop-opacity:1"/><stop offset="1" style="stop-color:rgb(155,8,235);stop-opacity:1"/></linearGradient>
        <linearGradient id="_Linear5" x1="0" y1="0" x2="1" y2="0" gradientUnits="userSpaceOnUse" gradientTransform="matrix(56,0,0,56,933,265)"><stop offset="0" style="stop-color:rgb(85,3,168);stop-opacity:1"/><stop offset="1" style="stop-color:rgb(155,8,235);stop-opacity:1"/></linearGradient>
        <linearGradient id="_Linear6" x1="0" y1="0" x2="1" y2="0" gradientUnits="userSpaceOnUse" gradientTransform="matrix(56,0,0,56,933,265)"><stop offset="0" style="stop-color:rgb(85,3,168);stop-opacity:1"/><stop offset="1" style="stop-color:rgb(155,8,235);stop-opacity:1"/></linearGradient>
        <linearGradient id="_Linear7" x1="0" y1="0" x2="1" y2="0" gradientUnits="userSpaceOnUse" gradientTransform="matrix(56,0,0,56,933,265)"><stop offset="0" style="stop-color:rgb(85,3,168);stop-opacity:1"/><stop offset="1" style="stop-color:rgb(155,8,235);stop-opacity:1"/></linearGradient>
        <linearGradient id="_Linear8" x1="0" y1="0" x2="1" y2="-0.388889" gradientUnits="userSpaceOnUse" gradientTransform="matrix(1.69566e-15,28,-27.6923,1.71451e-15,31.3846,23)"><stop offset="0" style="stop-color:white;stop-opacity:0.5"/><stop offset="1" style="stop-color:white;stop-opacity:0"/></linearGradient>
        <linearGradient id="_Linear9" x1="0" y1="0" x2="1" y2="-0.842593" gradientUnits="userSpaceOnUse" gradientTransform="matrix(1.69566e-15,28,-27.6923,1.71451e-15,31.3846,23)"><stop offset="0" style="stop-color:white;stop-opacity:0.5"/><stop offset="1" style="stop-color:white;stop-opacity:0"/></linearGradient>
    </defs>
</svg>
