<?xml version="1.0" encoding="UTF-8" standalone="no"?>
<!DOCTYPE svg PUBLIC "-//W3C//DTD SVG 1.1//EN" "http://www.w3.org/Graphics/SVG/1.1/DTD/svg11.dtd">
<svg width="100%" height="100%" viewBox="0 0 100 100" version="1.1" xmlns="http://www.w3.org/2000/svg" xmlns:xlink="http://www.w3.org/1999/xlink" xml:space="preserve" xmlns:serif="http://www.serif.com/" style="fill-rule:evenodd;clip-rule:evenodd;stroke-linejoin:round;stroke-miterlimit:2;">
    <g id="Steam-Button" serif:id="Steam Button">
        <g>
            <clipPath id="_clip1">
                <rect x="0" y="0" width="100" height="100"/>
            </clipPath>
            <g clip-path="url(#_clip1)">
                <g id="Background-Forest" serif:id="Background Forest" transform="matrix(0.169168,0,0,0.169106,-11.3683,3.64141)">
                    <g transform="matrix(1.01697,0,0,1.22606,-7.80764,-48.6039)">
                        <g id="Layer-1" serif:id="Layer 1">
                            <rect x="0" y="0" width="920" height="430" style="fill:rgb(168,225,72);"/>
                        </g>
                    </g>
                    <g id="Layer-2" serif:id="Layer 2" transform="matrix(1,0,0,1,0,-20)">
                        <g transform="matrix(1.63492,0,0,1.24488,-973.872,-13.2634)">
                            <path d="M718,205.359L718,394.641C718,455.55 680.361,505 634,505C587.639,505 550,455.55 550,394.641L550,205.359C550,144.45 587.639,95 634,95C680.361,95 718,144.45 718,205.359Z" style="fill:rgb(141,210,27);"/>
                        </g>
                        <g transform="matrix(1.63492,0,0,1.24488,-747.31,-47.6384)">
                            <path d="M718,205.359L718,394.641C718,455.55 680.361,505 634,505C587.639,505 550,455.55 550,394.641L550,205.359C550,144.45 587.639,95 634,95C680.361,95 718,144.45 718,205.359Z" style="fill:rgb(141,210,27);"/>
                        </g>
                        <g transform="matrix(1.52859,0,0,1.16392,-501.331,46.3706)">
                            <path d="M718,205.359L718,394.641C718,455.55 680.361,505 634,505C587.639,505 550,455.55 550,394.641L550,205.359C550,144.45 587.639,95 634,95C680.361,95 718,144.45 718,205.359Z" style="fill:rgb(141,210,27);"/>
                        </g>
                        <g transform="matrix(1.52859,0,0,1.16392,-316.956,-63.0043)">
                            <path d="M718,205.359L718,394.641C718,455.55 680.361,505 634,505C587.639,505 550,455.55 550,394.641L550,205.359C550,144.45 587.639,95 634,95C680.361,95 718,144.45 718,205.359Z" style="fill:rgb(141,210,27);"/>
                        </g>
                        <g id="Tree" transform="matrix(0.823602,0,0,0.823602,534.226,-191.489)">
                            <g transform="matrix(0.801131,0,0,0.801131,9.14797,61.2627)">
                                <path d="M46,245L66,285L26,285L46,245Z" style="fill:rgb(141,210,27);"/>
                            </g>
                            <g transform="matrix(1,0,0,1,0,24.576)">
                                <path d="M46,245L66,285L26,285L46,245Z" style="fill:rgb(141,210,27);"/>
                            </g>
                            <g transform="matrix(1,0,0,0.577655,0,148.362)">
                                <rect x="39.072" y="258.94" width="11.855" height="69.246" style="fill:rgb(141,210,27);"/>
                            </g>
                        </g>
                        <g id="Tree1" serif:id="Tree" transform="matrix(1.23375,0,0,1.23375,173.362,-293.023)">
                            <g transform="matrix(0.801131,0,0,0.801131,9.14797,61.2627)">
                                <path d="M46,245L66,285L26,285L46,245Z" style="fill:rgb(141,210,27);"/>
                            </g>
                            <g transform="matrix(1,0,0,1,0,24.576)">
                                <path d="M46,245L66,285L26,285L46,245Z" style="fill:rgb(141,210,27);"/>
                            </g>
                            <g transform="matrix(1,0,0,0.577655,0,148.362)">
                                <rect x="39.072" y="258.94" width="11.855" height="69.246" style="fill:rgb(141,210,27);"/>
                            </g>
                        </g>
                        <g id="Tree2" serif:id="Tree" transform="matrix(1.23375,0,0,1.23375,428.156,-239.895)">
                            <g transform="matrix(0.801131,0,0,0.801131,9.14797,61.2627)">
                                <path d="M46,245L66,285L26,285L46,245Z" style="fill:rgb(141,210,27);"/>
                            </g>
                            <g transform="matrix(1,0,0,1,0,24.576)">
                                <path d="M46,245L66,285L26,285L46,245Z" style="fill:rgb(141,210,27);"/>
                            </g>
                            <g transform="matrix(1,0,0,0.577655,0,148.362)">
                                <rect x="39.072" y="258.94" width="11.855" height="69.246" style="fill:rgb(141,210,27);"/>
                            </g>
                        </g>
                    </g>
                    <g id="Layer-3" serif:id="Layer 3" transform="matrix(1,0,0,1,0,158.495)">
                        <g transform="matrix(1.49718,0,0,1.14,-934.116,-54.3)">
                            <path d="M718,205.359L718,394.641C718,455.55 680.361,505 634,505C587.639,505 550,455.55 550,394.641L550,205.359C550,144.45 587.639,95 634,95C680.361,95 718,144.45 718,205.359Z" style="fill:rgb(111,187,0);"/>
                        </g>
                        <g transform="matrix(1.49718,0,0,1.14,-757.554,-4.30004)">
                            <path d="M718,205.359L718,394.641C718,455.55 680.361,505 634,505C587.639,505 550,455.55 550,394.641L550,205.359C550,144.45 587.639,95 634,95C680.361,95 718,144.45 718,205.359Z" style="fill:rgb(111,187,0);"/>
                        </g>
                        <g transform="matrix(1.49718,0,0,1.14,-563.804,-43.3625)">
                            <path d="M718,205.359L718,394.641C718,455.55 680.361,505 634,505C587.639,505 550,455.55 550,394.641L550,205.359C550,144.45 587.639,95 634,95C680.361,95 718,144.45 718,205.359Z" style="fill:rgb(111,187,0);"/>
                        </g>
                        <g transform="matrix(1.49718,0,0,1.23479,-340.366,-30.2953)">
                            <path d="M718,196.887L718,403.113C718,459.346 680.361,505 634,505C587.639,505 550,459.346 550,403.113L550,196.887C550,140.654 587.639,95 634,95C680.361,95 718,140.654 718,196.887Z" style="fill:rgb(111,187,0);"/>
                        </g>
                        <g id="Tree3" serif:id="Tree" transform="matrix(1.57858,0,0,1.57858,24.853,-413.246)">
                            <g transform="matrix(0.801131,0,0,0.801131,9.14797,61.2627)">
                                <path d="M46,245L66,285L26,285L46,245Z" style="fill:rgb(111,187,0);"/>
                            </g>
                            <g transform="matrix(1,0,0,1,0,24.576)">
                                <path d="M46,245L66,285L26,285L46,245Z" style="fill:rgb(111,187,0);"/>
                            </g>
                            <g transform="matrix(1,0,0,0.577655,0,148.362)">
                                <rect x="39.072" y="258.94" width="11.855" height="69.246" style="fill:rgb(111,187,0);"/>
                            </g>
                        </g>
                        <g id="Tree4" serif:id="Tree" transform="matrix(1.31054,0,0,1.31054,512.959,-322.667)">
                            <g transform="matrix(0.801131,0,0,0.801131,9.14797,61.2627)">
                                <path d="M46,245L66,285L26,285L46,245Z" style="fill:rgb(111,187,0);"/>
                            </g>
                            <g transform="matrix(1,0,0,1,0,24.576)">
                                <path d="M46,245L66,285L26,285L46,245Z" style="fill:rgb(111,187,0);"/>
                            </g>
                            <g transform="matrix(1,0,0,0.577655,0,148.362)">
                                <rect x="39.072" y="258.94" width="11.855" height="69.246" style="fill:rgb(111,187,0);"/>
                            </g>
                        </g>
                    </g>
                    <g id="Layer-4" serif:id="Layer 4" transform="matrix(1,0,0,1,66.8588,126.442)">
                        <g transform="matrix(1.34242,0,0,0.766677,-812.997,246.978)">
                            <path d="M718,242.134L718,357.866C718,439.071 680.361,505 634,505C587.639,505 550,439.071 550,357.866L550,242.134C550,160.929 587.639,95 634,95C680.361,95 718,160.929 718,242.134Z" style="fill:rgb(78,162,0);"/>
                        </g>
                        <g transform="matrix(1.34242,0,0,0.766677,-648.934,231.666)">
                            <path d="M718,242.134L718,357.866C718,439.071 680.361,505 634,505C587.639,505 550,439.071 550,357.866L550,242.134C550,160.929 587.639,95 634,95C680.361,95 718,160.929 718,242.134Z" style="fill:rgb(78,162,0);"/>
                        </g>
                        <g transform="matrix(1.55595,0,0,0.888628,-660.127,220.08)">
                            <path d="M718,242.134L718,357.866C718,439.071 680.361,505 634,505C587.639,505 550,439.071 550,357.866L550,242.134C550,160.929 587.639,95 634,95C680.361,95 718,160.929 718,242.134Z" style="fill:rgb(78,162,0);"/>
                        </g>
                        <g transform="matrix(1.55595,0,0,0.888628,-428.877,232.58)">
                            <path d="M718,242.134L718,357.866C718,439.071 680.361,505 634,505C587.639,505 550,439.071 550,357.866L550,242.134C550,160.929 587.639,95 634,95C680.361,95 718,160.929 718,242.134Z" style="fill:rgb(78,162,0);"/>
                        </g>
                        <g id="Tree5" serif:id="Tree" transform="matrix(1.5849,0,0,1.5849,-15.2074,-201.899)">
                            <g transform="matrix(0.801131,0,0,0.801131,9.14797,61.2627)">
                                <path d="M46,245L66,285L26,285L46,245Z" style="fill:rgb(78,162,0);"/>
                            </g>
                            <g transform="matrix(1,0,0,1,0,24.576)">
                                <path d="M46,245L66,285L26,285L46,245Z" style="fill:rgb(78,162,0);"/>
                            </g>
                            <g transform="matrix(1,0,0,0.68229,0,121.268)">
                                <rect x="39.072" y="258.94" width="11.855" height="69.246" style="fill:rgb(78,162,0);"/>
                            </g>
                        </g>
                        <g id="Tree6" serif:id="Tree" transform="matrix(1.5849,0,0,1.5849,453.916,-165.84)">
                            <g transform="matrix(0.801131,0,0,0.801131,9.14797,61.2627)">
                                <path d="M46,245L66,285L26,285L46,245Z" style="fill:rgb(78,162,0);"/>
                            </g>
                            <g transform="matrix(1,0,0,1,0,24.576)">
                                <path d="M46,245L66,285L26,285L46,245Z" style="fill:rgb(78,162,0);"/>
                            </g>
                            <g transform="matrix(1,0,0,0.577655,0,148.362)">
                                <rect x="39.072" y="258.94" width="11.855" height="69.246" style="fill:rgb(78,162,0);"/>
                            </g>
                        </g>
                    </g>
                    <g id="Layer-5" serif:id="Layer 5" transform="matrix(1,0,0,1,-5.9113,14.6252)">
                        <g id="Cloud" transform="matrix(1.01352,0,0,1.01352,-278.937,139.208)">
                            <g transform="matrix(0.398374,0,0,1,522.138,0)">
                                <path d="M823,324.2L823,332.8C823,342.293 803.661,350 779.84,350L743.16,350C719.339,350 700,342.293 700,332.8L700,324.2C700,314.707 719.339,307 743.16,307L779.84,307C803.661,307 823,314.707 823,324.2Z" style="fill:rgb(245,255,229);"/>
                            </g>
                            <g transform="matrix(0.512195,0,0,1.5814,396.463,-193.488)">
                                <path d="M823,322.941L823,334.059C823,342.857 800.954,350 773.8,350L749.2,350C722.046,350 700,342.857 700,334.059L700,322.941C700,314.143 722.046,307 749.2,307L773.8,307C800.954,307 823,314.143 823,322.941Z" style="fill:rgb(245,255,229);"/>
                            </g>
                            <g transform="matrix(1.11382,0,0,1,-46.6749,28.9999)">
                                <path d="M823,324.2L823,332.8C823,342.293 816.083,350 807.563,350L715.437,350C706.917,350 700,342.293 700,332.8L700,324.2C700,314.707 706.917,307 715.437,307L807.563,307C816.083,307 823,314.707 823,324.2Z" style="fill:rgb(245,255,229);"/>
                            </g>
                        </g>
                        <g id="Cloud1" serif:id="Cloud" transform="matrix(0.928177,0,0,0.928177,-685.192,-186.01)">
                            <g transform="matrix(0.609756,0,0,1,348.171,6)">
                                <path d="M823,324.2L823,332.8C823,342.293 810.365,350 794.802,350L728.198,350C712.635,350 700,342.293 700,332.8L700,324.2C700,314.707 712.635,307 728.198,307L794.802,307C810.365,307 823,314.707 823,324.2Z" style="fill:rgb(245,255,229);"/>
                            </g>
                            <g transform="matrix(0.609756,0,0,1,387.171,57.9998)">
                                <path d="M823,324.2L823,332.8C823,342.293 810.365,350 794.802,350L728.198,350C712.635,350 700,342.293 700,332.8L700,324.2C700,314.707 712.635,307 728.198,307L794.802,307C810.365,307 823,314.707 823,324.2Z" style="fill:rgb(245,255,229);"/>
                            </g>
                            <g transform="matrix(1.47154,0,0,1,-287.081,29.9999)">
                                <path d="M823,324.2L823,332.8C823,342.293 817.765,350 811.316,350L711.684,350C705.235,350 700,342.293 700,332.8L700,324.2C700,314.707 705.235,307 711.684,307L811.316,307C817.765,307 823,314.707 823,324.2Z" style="fill:rgb(245,255,229);"/>
                            </g>
                        </g>
                        <g id="Cloud2" serif:id="Cloud" transform="matrix(1.20006,0,0,1.20006,-351.726,-412.436)">
                            <g transform="matrix(0.594059,0,0,1.21782,381.044,-32.0045)">
                                <path d="M823,324.2L823,332.8C823,342.293 807.206,350 787.753,350L735.247,350C715.794,350 700,342.293 700,332.8L700,324.2C700,314.707 715.794,307 735.247,307L787.753,307C807.206,307 823,314.707 823,324.2Z" style="fill:rgb(245,255,229);"/>
                            </g>
                            <g transform="matrix(1,0,0,1.21782,65.2226,4.53008)">
                                <path d="M823,324.2L823,332.8C823,342.293 813.618,350 802.061,350L720.939,350C709.382,350 700,342.293 700,332.8L700,324.2C700,314.707 709.382,307 720.939,307L802.061,307C813.618,307 823,314.707 823,324.2Z" style="fill:rgb(245,255,229);"/>
                            </g>
                        </g>
                    </g>
                </g>
                <g id="Logo" transform="matrix(0.906833,0,0,0.90625,20.9999,20.9799)">
                    <g transform="matrix(1,0,0,1,0,4.41379)">
                        <path d="M-4.389,32L-4.389,27.586C-4.389,7.496 11.89,-8.793 31.977,-8.805L31.983,-8.805C52.069,-8.793 68.348,7.496 68.348,27.586L68.348,32C68.348,52.09 52.069,68.379 31.983,68.391L31.977,68.391C11.89,68.379 -4.389,52.09 -4.389,32Z"/>
                    </g>
                    <g transform="matrix(1.10274,0,0,1.10345,-18.7186,-23.1502)">
                        <circle cx="46" cy="49.98" r="29" style="fill:rgb(88,101,242);"/>
                    </g>
                    <g transform="matrix(1.37842,0,0,1.37931,32.0018,32.0222)">
                        <g transform="matrix(1,0,0,1,-16,-16)">
                            <clipPath id="_clip2">
                                <rect x="0" y="0" width="32" height="32"/>
                            </clipPath>
                            <g clip-path="url(#_clip2)">
                                <g transform="matrix(0.125,0,0,0.125,0,3.5625)">
                                    <path d="M216.856,16.597C200.285,8.843 182.566,3.208 164.042,0C161.767,4.113 159.109,9.645 157.276,14.046C137.584,11.085 118.073,11.085 98.743,14.046C96.911,9.645 94.193,4.113 91.897,0C73.353,3.208 55.613,8.864 39.042,16.638C5.618,67.147 -3.443,116.401 1.087,164.956C23.256,181.511 44.74,191.568 65.862,198.149C71.077,190.971 75.728,183.341 79.735,175.3C72.104,172.401 64.795,168.822 57.889,164.668C59.721,163.311 61.513,161.891 63.245,160.431C105.367,180.133 151.135,180.133 192.755,160.431C194.506,161.891 196.298,163.311 198.11,164.668C191.184,168.843 183.855,172.421 176.224,175.321C180.23,183.341 184.862,190.992 190.097,198.169C211.239,191.588 232.743,181.532 254.912,164.956C260.228,108.668 245.831,59.866 216.856,16.597ZM85.474,135.095C72.829,135.095 62.459,123.29 62.459,108.915C62.459,94.54 72.608,82.715 85.474,82.715C98.341,82.715 108.71,94.519 108.489,108.915C108.509,123.29 98.341,135.095 85.474,135.095ZM170.525,135.095C157.88,135.095 147.511,123.29 147.511,108.915C147.511,94.54 157.659,82.715 170.525,82.715C183.392,82.715 193.761,94.519 193.54,108.915C193.54,123.29 183.392,135.095 170.525,135.095Z" style="fill:white;fill-rule:nonzero;"/>
                                </g>
                            </g>
                        </g>
                    </g>
                </g>
            </g>
        </g>
    </g>
</svg>
