<?xml version="1.0" encoding="UTF-8" standalone="no"?>
<!DOCTYPE svg PUBLIC "-//W3C//DTD SVG 1.1//EN" "http://www.w3.org/Graphics/SVG/1.1/DTD/svg11.dtd">
<svg width="100%" height="100%" viewBox="0 0 100 100" version="1.1" xmlns="http://www.w3.org/2000/svg" xmlns:xlink="http://www.w3.org/1999/xlink" xml:space="preserve" xmlns:serif="http://www.serif.com/" style="fill-rule:evenodd;clip-rule:evenodd;stroke-linejoin:round;stroke-miterlimit:2;">
    <g transform="matrix(1,0,0,1,-270,-180)">
        <g id="Steam-Button" serif:id="Steam Button">
            <g>
                <g>
                    <g id="Background" transform="matrix(0.412391,0,0,0.682116,192.277,102.697)">
                        <rect x="188.469" y="113.328" width="242.489" height="146.603" style="fill:rgb(76,169,255);"/>
                        <g transform="matrix(1.19995,0,0,0.954301,-899.315,-111.695)">
                            <path d="M1090.8,249L1091.45,249C1096.17,249 1100,251.913 1100,255.5C1100,259.087 1096.17,262 1091.45,262L1058.55,262C1053.83,262 1050,259.087 1050,255.5C1050,251.913 1053.83,249 1058.55,249L1060.59,249C1060.32,248.372 1060.17,247.7 1060.17,247.003L1060.17,246.811C1060.17,243.276 1063.95,240.407 1068.6,240.407C1071.58,240.407 1074.2,241.586 1075.7,243.364C1077.19,241.586 1079.82,240.407 1082.8,240.407C1087.45,240.407 1091.22,243.276 1091.22,246.811L1091.22,247.003C1091.22,247.7 1091.07,248.372 1090.8,249Z" style="fill:white;"/>
                        </g>
                        <g transform="matrix(2.77564,-1.67809,2.77564,1.67809,-3163.3,1411.9)">
                            <rect x="933" y="237" width="56" height="56" style="fill:url(#_Linear1);"/>
                        </g>
                        <g id="Steam" transform="matrix(1.14286,0,0,1.14286,-44.2446,-10.5386)">
                            <g transform="matrix(1.32696,0,0,0.801733,267.278,146.867)">
                                <path d="M1.305,41.202C5.259,54.386 17.488,64 31.959,64C49.632,64 63.959,49.673 63.959,32C63.959,14.327 49.632,0 31.959,0C15.001,0 1.124,13.193 0.028,29.874C2.102,33.351 2.907,35.502 1.303,41.202L1.305,41.202Z" style="fill:url(#_Linear2);fill-rule:nonzero;"/>
                            </g>
                            <g transform="matrix(1.32696,0,0,0.801733,267.278,146.867)">
                                <path d="M30.31,23.985L30.313,24.143L22.483,35.518C21.215,35.46 19.943,35.683 18.735,36.18C18.209,36.394 17.707,36.662 17.237,36.98L0.042,29.893C0.042,29.893 -0.356,36.439 1.302,41.317L13.458,46.333C14.058,49.061 15.938,51.453 18.7,52.603C23.194,54.47 28.43,52.313 30.303,47.821C30.786,46.664 31.019,45.418 30.987,44.165L42.18,36.16L42.455,36.165C49.16,36.165 54.61,30.699 54.61,23.985C54.61,17.271 49.17,11.825 42.455,11.811C35.753,11.811 30.3,17.271 30.3,23.985L30.31,23.985ZM28.43,47.035C26.976,50.535 22.964,52.182 19.477,50.729C17.93,50.079 16.675,48.882 15.953,47.367L19.91,49.007C20.524,49.262 21.182,49.394 21.847,49.394C23.879,49.394 25.721,48.165 26.501,46.288C27.565,43.733 26.34,40.754 23.786,39.687L19.686,37.992C21.264,37.392 23.058,37.372 24.736,38.069C26.436,38.772 27.736,40.096 28.432,41.789C29.128,43.482 29.124,45.349 28.422,47.035M42.466,32.1C38.022,32.088 34.372,28.431 34.368,23.987C34.373,19.544 38.023,15.888 42.466,15.876C46.91,15.887 50.561,19.543 50.566,23.987C50.562,28.431 46.91,32.089 42.466,32.1M36.398,23.974C36.395,20.635 39.139,17.884 42.478,17.879C45.833,17.879 48.562,20.609 48.562,23.974C48.564,27.314 45.818,30.064 42.478,30.067C39.139,30.062 36.395,27.313 36.397,23.974L36.398,23.974Z" style="fill:white;fill-rule:nonzero;"/>
                            </g>
                        </g>
                        <g transform="matrix(2.11192,-1.27682,2.11192,1.27682,-2203.08,1135.07)">
                            <rect x="933" y="237" width="56" height="56" style="fill:url(#_Linear3);"/>
                        </g>
                        <g transform="matrix(1.55687,-0.941248,1.55687,0.941248,-1700.97,904.71)">
                            <rect x="933" y="237" width="56" height="56" style="fill:url(#_Linear4);"/>
                        </g>
                        <g transform="matrix(1.19995,0,0,0.954301,-1066.63,-94.9722)">
                            <path d="M1090.36,249L1091.45,249C1096.17,249 1100,251.913 1100,255.5C1100,259.087 1096.17,262 1091.45,262L1058.55,262C1053.83,262 1050,259.087 1050,255.5C1050,251.913 1053.83,249 1058.55,249L1060.84,249C1060.37,248.2 1060.1,247.312 1060.1,246.379L1060.1,246.187C1060.1,242.652 1063.88,239.783 1068.53,239.783C1071.49,239.783 1074.1,240.948 1075.6,242.708C1077.1,240.948 1079.71,239.783 1082.67,239.783C1087.32,239.783 1091.1,242.652 1091.1,246.187L1091.1,246.379C1091.1,247.312 1090.83,248.2 1090.36,249Z" style="fill:white;"/>
                        </g>
                    </g>
                    <g id="Level">
                        <g transform="matrix(1.34765,0,0,0.881713,-1151.03,43.4535)">
                            <path d="M1100,252.402L1100,258.598C1100,260.475 1099,262 1097.77,262L1052.23,262C1051,262 1050,260.475 1050,258.598L1050,252.402C1050,250.525 1051,249 1052.23,249L1097.77,249C1099,249 1100,250.525 1100,252.402Z" style="fill:rgb(148,217,255);"/>
                        </g>
                        <g transform="matrix(0.41485,0,0,0.881713,-110.592,52.4535)">
                            <path d="M1100,252.402L1100,258.598C1100,260.475 1096.76,262 1092.77,262L1057.23,262C1053.24,262 1050,260.475 1050,258.598L1050,252.402C1050,250.525 1053.24,249 1057.23,249L1092.77,249C1096.76,249 1100,250.525 1100,252.402Z" style="fill:rgb(148,217,255);"/>
                        </g>
                        <g transform="matrix(0.41485,0,0,0.881713,-81.5925,43.4535)">
                            <path d="M1100,252.402L1100,258.598C1100,260.475 1096.76,262 1092.77,262L1057.23,262C1053.24,262 1050,260.475 1050,258.598L1050,252.402C1050,250.525 1053.24,249 1057.23,249L1092.77,249C1096.76,249 1100,250.525 1100,252.402Z" style="fill:rgb(148,217,255);"/>
                        </g>
                        <g transform="matrix(0.230731,0,0,2.65094,76.7325,-397.084)">
                            <path d="M1100,250.132L1100,260.868C1100,261.493 1094.17,262 1087,262L1063,262C1055.83,262 1050,261.493 1050,260.868L1050,250.132C1050,249.507 1055.83,249 1063,249L1087,249C1094.17,249 1100,249.507 1100,250.132Z" style="fill:rgb(148,217,255);"/>
                        </g>
                        <g transform="matrix(1.34765,0,0,0.266328,-1151.03,196.684)">
                            <path d="M1100,255.5C1100,259.087 1099.42,262 1098.71,262L1051.29,262C1050.58,262 1050,259.087 1050,255.5C1050,251.913 1050.58,249 1051.29,249L1098.71,249C1099.42,249 1100,251.913 1100,255.5Z" style="fill:rgb(216,241,255);"/>
                        </g>
                        <g transform="matrix(0.253514,0,0,1,9.8103,3)">
                            <path d="M1100,252L1100,259C1100,260.656 1094.7,262 1088.17,262L1061.83,262C1055.3,262 1050,260.656 1050,259L1050,252C1050,250.344 1055.3,249 1061.83,249L1088.17,249C1094.7,249 1100,250.344 1100,252Z" style="fill:rgb(255,203,76);"/>
                        </g>
                        <g transform="matrix(0.253514,0,0,0.307692,9.8103,175.385)">
                            <path d="M1100,255.5C1100,259.087 1096.46,262 1092.11,262L1057.89,262C1053.54,262 1050,259.087 1050,255.5C1050,251.913 1053.54,249 1057.89,249L1092.11,249C1096.46,249 1100,251.913 1100,255.5Z" style="fill:rgb(255,143,65);"/>
                        </g>
                        <g transform="matrix(0.41485,0,0,0.266328,-110.592,205.684)">
                            <path d="M1100,255.5C1100,259.087 1098.13,262 1095.83,262L1054.17,262C1051.87,262 1050,259.087 1050,255.5C1050,251.913 1051.87,249 1054.17,249L1095.83,249C1098.13,249 1100,251.913 1100,255.5Z" style="fill:rgb(216,241,255);"/>
                        </g>
                        <g transform="matrix(0.41485,0,0,0.266328,-81.5925,196.684)">
                            <path d="M1100,255.5C1100,259.087 1098.13,262 1095.83,262L1054.17,262C1051.87,262 1050,259.087 1050,255.5C1050,251.913 1051.87,249 1054.17,249L1095.83,249C1098.13,249 1100,251.913 1100,255.5Z" style="fill:rgb(216,241,255);"/>
                        </g>
                    </g>
                </g>
            </g>
        </g>
    </g>
    <defs>
        <linearGradient id="_Linear1" x1="0" y1="0" x2="1" y2="0" gradientUnits="userSpaceOnUse" gradientTransform="matrix(-31.0561,31.0561,-31.0561,-31.0561,989,237)"><stop offset="0" style="stop-color:rgb(76,125,255);stop-opacity:1"/><stop offset="1" style="stop-color:rgb(76,169,255);stop-opacity:1"/></linearGradient>
        <linearGradient id="_Linear2" x1="0" y1="0" x2="1" y2="0" gradientUnits="userSpaceOnUse" gradientTransform="matrix(3.91887e-15,64,-64,3.91887e-15,31.9935,0)"><stop offset="0" style="stop-color:rgb(17,29,46);stop-opacity:1"/><stop offset="0.21" style="stop-color:rgb(5,24,57);stop-opacity:1"/><stop offset="0.41" style="stop-color:rgb(10,27,72);stop-opacity:1"/><stop offset="0.58" style="stop-color:rgb(19,46,98);stop-opacity:1"/><stop offset="0.74" style="stop-color:rgb(20,75,126);stop-opacity:1"/><stop offset="0.87" style="stop-color:rgb(19,100,151);stop-opacity:1"/><stop offset="1" style="stop-color:rgb(19,135,184);stop-opacity:1"/></linearGradient>
        <linearGradient id="_Linear3" x1="0" y1="0" x2="1" y2="0" gradientUnits="userSpaceOnUse" gradientTransform="matrix(-16.4532,16.4532,-16.4532,-16.4532,989,237)"><stop offset="0" style="stop-color:rgb(76,125,255);stop-opacity:1"/><stop offset="1" style="stop-color:rgb(76,169,255);stop-opacity:1"/></linearGradient>
        <linearGradient id="_Linear4" x1="0" y1="0" x2="1" y2="0" gradientUnits="userSpaceOnUse" gradientTransform="matrix(-21.9012,21.9012,-21.9012,-21.9012,989,237)"><stop offset="0" style="stop-color:rgb(76,125,255);stop-opacity:1"/><stop offset="1" style="stop-color:rgb(76,169,255);stop-opacity:1"/></linearGradient>
    </defs>
</svg>
