<?xml version="1.0" encoding="UTF-8" standalone="no"?>
<!DOCTYPE svg PUBLIC "-//W3C//DTD SVG 1.1//EN" "http://www.w3.org/Graphics/SVG/1.1/DTD/svg11.dtd">
<svg width="100%" height="100%" viewBox="0 0 100 100" version="1.1" xmlns="http://www.w3.org/2000/svg" xmlns:xlink="http://www.w3.org/1999/xlink" xml:space="preserve" xmlns:serif="http://www.serif.com/" style="fill-rule:evenodd;clip-rule:evenodd;stroke-linejoin:round;stroke-miterlimit:2;">
    <g id="Steam-Button" serif:id="Steam Button">
        <clipPath id="_clip1">
            <rect x="0" y="0" width="100" height="100"/>
        </clipPath>
        <g clip-path="url(#_clip1)">
            <g id="Background-Forest" serif:id="Background Forest" transform="matrix(0.169168,0,0,0.169106,-11.3683,3.64141)">
                <g transform="matrix(1.01697,0,0,1.22606,-7.80764,-48.6039)">
                    <g id="Layer-1" serif:id="Layer 1">
                        <rect x="0" y="0" width="920" height="430" style="fill:rgb(168,225,72);"/>
                    </g>
                </g>
                <g id="Layer-2" serif:id="Layer 2" transform="matrix(1,0,0,1,0,-20)">
                    <g transform="matrix(1.63492,0,0,1.24488,-973.872,-13.2634)">
                        <path d="M718,205.359L718,394.641C718,455.55 680.361,505 634,505C587.639,505 550,455.55 550,394.641L550,205.359C550,144.45 587.639,95 634,95C680.361,95 718,144.45 718,205.359Z" style="fill:rgb(141,210,27);"/>
                    </g>
                    <g transform="matrix(1.63492,0,0,1.24488,-747.31,-47.6384)">
                        <path d="M718,205.359L718,394.641C718,455.55 680.361,505 634,505C587.639,505 550,455.55 550,394.641L550,205.359C550,144.45 587.639,95 634,95C680.361,95 718,144.45 718,205.359Z" style="fill:rgb(141,210,27);"/>
                    </g>
                    <g transform="matrix(1.52859,0,0,1.16392,-501.331,46.3706)">
                        <path d="M718,205.359L718,394.641C718,455.55 680.361,505 634,505C587.639,505 550,455.55 550,394.641L550,205.359C550,144.45 587.639,95 634,95C680.361,95 718,144.45 718,205.359Z" style="fill:rgb(141,210,27);"/>
                    </g>
                    <g transform="matrix(1.52859,0,0,1.16392,-316.956,-63.0043)">
                        <path d="M718,205.359L718,394.641C718,455.55 680.361,505 634,505C587.639,505 550,455.55 550,394.641L550,205.359C550,144.45 587.639,95 634,95C680.361,95 718,144.45 718,205.359Z" style="fill:rgb(141,210,27);"/>
                    </g>
                    <g id="Tree" transform="matrix(0.823602,0,0,0.823602,534.226,-191.489)">
                        <g transform="matrix(0.801131,0,0,0.801131,9.14797,61.2627)">
                            <path d="M46,245L66,285L26,285L46,245Z" style="fill:rgb(141,210,27);"/>
                        </g>
                        <g transform="matrix(1,0,0,1,0,24.576)">
                            <path d="M46,245L66,285L26,285L46,245Z" style="fill:rgb(141,210,27);"/>
                        </g>
                        <g transform="matrix(1,0,0,0.577655,0,148.362)">
                            <rect x="39.072" y="258.94" width="11.855" height="69.246" style="fill:rgb(141,210,27);"/>
                        </g>
                    </g>
                    <g id="Tree1" serif:id="Tree" transform="matrix(1.23375,0,0,1.23375,173.362,-293.023)">
                        <g transform="matrix(0.801131,0,0,0.801131,9.14797,61.2627)">
                            <path d="M46,245L66,285L26,285L46,245Z" style="fill:rgb(141,210,27);"/>
                        </g>
                        <g transform="matrix(1,0,0,1,0,24.576)">
                            <path d="M46,245L66,285L26,285L46,245Z" style="fill:rgb(141,210,27);"/>
                        </g>
                        <g transform="matrix(1,0,0,0.577655,0,148.362)">
                            <rect x="39.072" y="258.94" width="11.855" height="69.246" style="fill:rgb(141,210,27);"/>
                        </g>
                    </g>
                    <g id="Tree2" serif:id="Tree" transform="matrix(1.23375,0,0,1.23375,428.156,-239.895)">
                        <g transform="matrix(0.801131,0,0,0.801131,9.14797,61.2627)">
                            <path d="M46,245L66,285L26,285L46,245Z" style="fill:rgb(141,210,27);"/>
                        </g>
                        <g transform="matrix(1,0,0,1,0,24.576)">
                            <path d="M46,245L66,285L26,285L46,245Z" style="fill:rgb(141,210,27);"/>
                        </g>
                        <g transform="matrix(1,0,0,0.577655,0,148.362)">
                            <rect x="39.072" y="258.94" width="11.855" height="69.246" style="fill:rgb(141,210,27);"/>
                        </g>
                    </g>
                </g>
                <g id="Layer-3" serif:id="Layer 3" transform="matrix(1,0,0,1,0,158.495)">
                    <g transform="matrix(1.49718,0,0,1.14,-934.116,-54.3)">
                        <path d="M718,205.359L718,394.641C718,455.55 680.361,505 634,505C587.639,505 550,455.55 550,394.641L550,205.359C550,144.45 587.639,95 634,95C680.361,95 718,144.45 718,205.359Z" style="fill:rgb(111,187,0);"/>
                    </g>
                    <g transform="matrix(1.49718,0,0,1.14,-757.554,-4.30004)">
                        <path d="M718,205.359L718,394.641C718,455.55 680.361,505 634,505C587.639,505 550,455.55 550,394.641L550,205.359C550,144.45 587.639,95 634,95C680.361,95 718,144.45 718,205.359Z" style="fill:rgb(111,187,0);"/>
                    </g>
                    <g transform="matrix(1.49718,0,0,1.14,-563.804,-43.3625)">
                        <path d="M718,205.359L718,394.641C718,455.55 680.361,505 634,505C587.639,505 550,455.55 550,394.641L550,205.359C550,144.45 587.639,95 634,95C680.361,95 718,144.45 718,205.359Z" style="fill:rgb(111,187,0);"/>
                    </g>
                    <g transform="matrix(1.49718,0,0,1.23479,-340.366,-30.2953)">
                        <path d="M718,196.887L718,403.113C718,459.346 680.361,505 634,505C587.639,505 550,459.346 550,403.113L550,196.887C550,140.654 587.639,95 634,95C680.361,95 718,140.654 718,196.887Z" style="fill:rgb(111,187,0);"/>
                    </g>
                    <g id="Tree3" serif:id="Tree" transform="matrix(1.57858,0,0,1.57858,24.853,-413.246)">
                        <g transform="matrix(0.801131,0,0,0.801131,9.14797,61.2627)">
                            <path d="M46,245L66,285L26,285L46,245Z" style="fill:rgb(111,187,0);"/>
                        </g>
                        <g transform="matrix(1,0,0,1,0,24.576)">
                            <path d="M46,245L66,285L26,285L46,245Z" style="fill:rgb(111,187,0);"/>
                        </g>
                        <g transform="matrix(1,0,0,0.577655,0,148.362)">
                            <rect x="39.072" y="258.94" width="11.855" height="69.246" style="fill:rgb(111,187,0);"/>
                        </g>
                    </g>
                    <g id="Tree4" serif:id="Tree" transform="matrix(1.31054,0,0,1.31054,512.959,-322.667)">
                        <g transform="matrix(0.801131,0,0,0.801131,9.14797,61.2627)">
                            <path d="M46,245L66,285L26,285L46,245Z" style="fill:rgb(111,187,0);"/>
                        </g>
                        <g transform="matrix(1,0,0,1,0,24.576)">
                            <path d="M46,245L66,285L26,285L46,245Z" style="fill:rgb(111,187,0);"/>
                        </g>
                        <g transform="matrix(1,0,0,0.577655,0,148.362)">
                            <rect x="39.072" y="258.94" width="11.855" height="69.246" style="fill:rgb(111,187,0);"/>
                        </g>
                    </g>
                </g>
                <g id="Layer-4" serif:id="Layer 4" transform="matrix(1,0,0,1,66.8588,126.442)">
                    <g transform="matrix(1.34242,0,0,0.766677,-812.997,246.978)">
                        <path d="M718,242.134L718,357.866C718,439.071 680.361,505 634,505C587.639,505 550,439.071 550,357.866L550,242.134C550,160.929 587.639,95 634,95C680.361,95 718,160.929 718,242.134Z" style="fill:rgb(78,162,0);"/>
                    </g>
                    <g transform="matrix(1.34242,0,0,0.766677,-648.934,231.666)">
                        <path d="M718,242.134L718,357.866C718,439.071 680.361,505 634,505C587.639,505 550,439.071 550,357.866L550,242.134C550,160.929 587.639,95 634,95C680.361,95 718,160.929 718,242.134Z" style="fill:rgb(78,162,0);"/>
                    </g>
                    <g transform="matrix(1.55595,0,0,0.888628,-660.127,220.08)">
                        <path d="M718,242.134L718,357.866C718,439.071 680.361,505 634,505C587.639,505 550,439.071 550,357.866L550,242.134C550,160.929 587.639,95 634,95C680.361,95 718,160.929 718,242.134Z" style="fill:rgb(78,162,0);"/>
                    </g>
                    <g transform="matrix(1.55595,0,0,0.888628,-428.877,232.58)">
                        <path d="M718,242.134L718,357.866C718,439.071 680.361,505 634,505C587.639,505 550,439.071 550,357.866L550,242.134C550,160.929 587.639,95 634,95C680.361,95 718,160.929 718,242.134Z" style="fill:rgb(78,162,0);"/>
                    </g>
                    <g id="Tree5" serif:id="Tree" transform="matrix(1.5849,0,0,1.5849,-15.2074,-201.899)">
                        <g transform="matrix(0.801131,0,0,0.801131,9.14797,61.2627)">
                            <path d="M46,245L66,285L26,285L46,245Z" style="fill:rgb(78,162,0);"/>
                        </g>
                        <g transform="matrix(1,0,0,1,0,24.576)">
                            <path d="M46,245L66,285L26,285L46,245Z" style="fill:rgb(78,162,0);"/>
                        </g>
                        <g transform="matrix(1,0,0,0.68229,0,121.268)">
                            <rect x="39.072" y="258.94" width="11.855" height="69.246" style="fill:rgb(78,162,0);"/>
                        </g>
                    </g>
                    <g id="Tree6" serif:id="Tree" transform="matrix(1.5849,0,0,1.5849,453.916,-165.84)">
                        <g transform="matrix(0.801131,0,0,0.801131,9.14797,61.2627)">
                            <path d="M46,245L66,285L26,285L46,245Z" style="fill:rgb(78,162,0);"/>
                        </g>
                        <g transform="matrix(1,0,0,1,0,24.576)">
                            <path d="M46,245L66,285L26,285L46,245Z" style="fill:rgb(78,162,0);"/>
                        </g>
                        <g transform="matrix(1,0,0,0.577655,0,148.362)">
                            <rect x="39.072" y="258.94" width="11.855" height="69.246" style="fill:rgb(78,162,0);"/>
                        </g>
                    </g>
                </g>
                <g id="Layer-5" serif:id="Layer 5" transform="matrix(1,0,0,1,-5.9113,14.6252)">
                    <g id="Cloud" transform="matrix(1.01352,0,0,1.01352,-278.937,139.208)">
                        <g transform="matrix(0.398374,0,0,1,522.138,0)">
                            <path d="M823,324.2L823,332.8C823,342.293 803.661,350 779.84,350L743.16,350C719.339,350 700,342.293 700,332.8L700,324.2C700,314.707 719.339,307 743.16,307L779.84,307C803.661,307 823,314.707 823,324.2Z" style="fill:rgb(245,255,229);"/>
                        </g>
                        <g transform="matrix(0.512195,0,0,1.5814,396.463,-193.488)">
                            <path d="M823,322.941L823,334.059C823,342.857 800.954,350 773.8,350L749.2,350C722.046,350 700,342.857 700,334.059L700,322.941C700,314.143 722.046,307 749.2,307L773.8,307C800.954,307 823,314.143 823,322.941Z" style="fill:rgb(245,255,229);"/>
                        </g>
                        <g transform="matrix(1.11382,0,0,1,-46.6749,28.9999)">
                            <path d="M823,324.2L823,332.8C823,342.293 816.083,350 807.563,350L715.437,350C706.917,350 700,342.293 700,332.8L700,324.2C700,314.707 706.917,307 715.437,307L807.563,307C816.083,307 823,314.707 823,324.2Z" style="fill:rgb(245,255,229);"/>
                        </g>
                    </g>
                    <g id="Cloud1" serif:id="Cloud" transform="matrix(0.928177,0,0,0.928177,-685.192,-186.01)">
                        <g transform="matrix(0.609756,0,0,1,348.171,6)">
                            <path d="M823,324.2L823,332.8C823,342.293 810.365,350 794.802,350L728.198,350C712.635,350 700,342.293 700,332.8L700,324.2C700,314.707 712.635,307 728.198,307L794.802,307C810.365,307 823,314.707 823,324.2Z" style="fill:rgb(245,255,229);"/>
                        </g>
                        <g transform="matrix(0.609756,0,0,1,387.171,57.9998)">
                            <path d="M823,324.2L823,332.8C823,342.293 810.365,350 794.802,350L728.198,350C712.635,350 700,342.293 700,332.8L700,324.2C700,314.707 712.635,307 728.198,307L794.802,307C810.365,307 823,314.707 823,324.2Z" style="fill:rgb(245,255,229);"/>
                        </g>
                        <g transform="matrix(1.47154,0,0,1,-287.081,29.9999)">
                            <path d="M823,324.2L823,332.8C823,342.293 817.765,350 811.316,350L711.684,350C705.235,350 700,342.293 700,332.8L700,324.2C700,314.707 705.235,307 711.684,307L811.316,307C817.765,307 823,314.707 823,324.2Z" style="fill:rgb(245,255,229);"/>
                        </g>
                    </g>
                    <g id="Cloud2" serif:id="Cloud" transform="matrix(1.20006,0,0,1.20006,-351.726,-412.436)">
                        <g transform="matrix(0.594059,0,0,1.21782,381.044,-32.0045)">
                            <path d="M823,324.2L823,332.8C823,342.293 807.206,350 787.753,350L735.247,350C715.794,350 700,342.293 700,332.8L700,324.2C700,314.707 715.794,307 735.247,307L787.753,307C807.206,307 823,314.707 823,324.2Z" style="fill:rgb(245,255,229);"/>
                        </g>
                        <g transform="matrix(1,0,0,1.21782,65.2226,4.53008)">
                            <path d="M823,324.2L823,332.8C823,342.293 813.618,350 802.061,350L720.939,350C709.382,350 700,342.293 700,332.8L700,324.2C700,314.707 709.382,307 720.939,307L802.061,307C813.618,307 823,314.707 823,324.2Z" style="fill:rgb(245,255,229);"/>
                        </g>
                    </g>
                </g>
            </g>
            <g id="Logo-Group" serif:id="Logo Group" transform="matrix(0.906833,0,0,0.90625,20.9999,21)">
                <g id="Logo">
                    <g id="Logo-Group1" serif:id="Logo Group">
                        <g id="Circle">
                            <g transform="matrix(1,0,0,1,0,4.41379)">
                                <path d="M0,32L0,27.586C0,9.92 14.316,-4.403 31.98,-4.414C49.643,-4.403 63.959,9.92 63.959,27.586L63.959,32C63.959,49.666 49.643,63.989 31.98,64C14.316,63.989 0,49.666 0,32Z" style="stroke:black;stroke-width:8.78px;"/>
                            </g>
                            <path d="M1.305,41.202C5.259,54.386 17.488,64 31.959,64C49.632,64 63.959,49.673 63.959,32C63.959,14.327 49.632,0 31.959,0C15.001,0 1.124,13.193 0.028,29.874C2.102,33.351 2.907,35.502 1.303,41.202L1.305,41.202Z" style="fill:url(#_Linear2);fill-rule:nonzero;"/>
                        </g>
                        <path d="M30.31,23.985L30.313,24.143L22.483,35.518C21.215,35.46 19.943,35.683 18.735,36.18C18.209,36.394 17.707,36.662 17.237,36.98L0.042,29.893C0.042,29.893 -0.356,36.439 1.302,41.317L13.458,46.333C14.058,49.061 15.938,51.453 18.7,52.603C23.194,54.47 28.43,52.313 30.303,47.821C30.786,46.664 31.019,45.418 30.987,44.165L42.18,36.16L42.455,36.165C49.16,36.165 54.61,30.699 54.61,23.985C54.61,17.271 49.17,11.825 42.455,11.811C35.753,11.811 30.3,17.271 30.3,23.985L30.31,23.985ZM28.43,47.035C26.976,50.535 22.964,52.182 19.477,50.729C17.93,50.079 16.675,48.882 15.953,47.367L19.91,49.007C20.524,49.262 21.182,49.394 21.847,49.394C23.879,49.394 25.721,48.165 26.501,46.288C27.565,43.733 26.34,40.754 23.786,39.687L19.686,37.992C21.264,37.392 23.058,37.372 24.736,38.069C26.436,38.772 27.736,40.096 28.432,41.789C29.128,43.482 29.124,45.349 28.422,47.035M42.466,32.1C38.022,32.088 34.372,28.431 34.368,23.987C34.373,19.544 38.023,15.888 42.466,15.876C46.91,15.887 50.561,19.543 50.566,23.987C50.562,28.431 46.91,32.089 42.466,32.1M36.398,23.974C36.395,20.635 39.139,17.884 42.478,17.879C45.833,17.879 48.562,20.609 48.562,23.974C48.564,27.314 45.818,30.064 42.478,30.067C39.139,30.062 36.395,27.313 36.397,23.974L36.398,23.974Z" style="fill:white;fill-rule:nonzero;"/>
                    </g>
                </g>
            </g>
        </g>
    </g>
    <defs>
        <linearGradient id="_Linear2" x1="0" y1="0" x2="1" y2="0" gradientUnits="userSpaceOnUse" gradientTransform="matrix(3.91887e-15,64,-64,3.91887e-15,31.9935,0)"><stop offset="0" style="stop-color:rgb(17,29,46);stop-opacity:1"/><stop offset="0.21" style="stop-color:rgb(5,24,57);stop-opacity:1"/><stop offset="0.41" style="stop-color:rgb(10,27,72);stop-opacity:1"/><stop offset="0.58" style="stop-color:rgb(19,46,98);stop-opacity:1"/><stop offset="0.74" style="stop-color:rgb(20,75,126);stop-opacity:1"/><stop offset="0.87" style="stop-color:rgb(19,100,151);stop-opacity:1"/><stop offset="1" style="stop-color:rgb(19,135,184);stop-opacity:1"/></linearGradient>
    </defs>
</svg>
