<?xml version="1.0" encoding="UTF-8" standalone="no"?>
<!DOCTYPE svg PUBLIC "-//W3C//DTD SVG 1.1//EN" "http://www.w3.org/Graphics/SVG/1.1/DTD/svg11.dtd">
<svg width="100%" height="100%" viewBox="0 0 100 100" version="1.1" xmlns="http://www.w3.org/2000/svg" xmlns:xlink="http://www.w3.org/1999/xlink" xml:space="preserve" xmlns:serif="http://www.serif.com/" style="fill-rule:evenodd;clip-rule:evenodd;stroke-linejoin:round;stroke-miterlimit:2;">
    <g id="Background" transform="matrix(0.412391,0,0,0.682116,-77.723,-77.3028)">
        <rect x="188.469" y="113.328" width="242.489" height="146.603" style="fill:url(#_Radial1);"/>
    </g>
    <g transform="matrix(1,0,0,1,-327.646,-174)">
        <circle cx="342.36" cy="219.64" r="5.36"/>
    </g>
    <g transform="matrix(0.707107,0.707107,-0.707107,0.707107,-104.198,-354.27)">
        <path d="M376,191.5C376,193.432 374.432,195 372.5,195L357.034,195C355.103,195 353.534,193.432 353.534,191.5C353.534,189.568 355.103,188 357.034,188L372.5,188C374.432,188 376,189.568 376,191.5Z"/>
    </g>
    <g transform="matrix(0.707107,-0.707107,0.707107,0.707107,-311.661,161.589)">
        <path d="M376,191.5C376,193.432 374.432,195 372.5,195L357.034,195C355.103,195 353.534,193.432 353.534,191.5C353.534,189.568 355.103,188 357.034,188L372.5,188C374.432,188 376,189.568 376,191.5Z"/>
    </g>
    <g transform="matrix(1,0,0,1,-257.074,-174)">
        <circle cx="342.36" cy="219.64" r="5.36"/>
    </g>
    <g transform="matrix(1.63636,0,0,0.727273,-553.818,-108.636)">
        <path d="M380,225L380,236C380,242.071 377.809,247 375.111,247L362.889,247C360.191,247 358,242.071 358,236L358,225L380,225Z"/>
    </g>
    <g transform="matrix(1.36364,0,0,0.227273,-453.182,6.86364)">
        <path d="M380,225L380,236C380,242.071 379.179,247 378.167,247L359.833,247C358.821,247 358,242.071 358,236L358,225L380,225Z" style="fill:white;"/>
    </g>
    <defs>
        <radialGradient id="_Radial1" cx="0" cy="0" r="1" gradientUnits="userSpaceOnUse" gradientTransform="matrix(157.618,-2.08335e-14,3.44597e-14,95.2917,309.714,186.629)"><stop offset="0" style="stop-color:rgb(163,235,43);stop-opacity:1"/><stop offset="0.61" style="stop-color:rgb(135,227,51);stop-opacity:1"/><stop offset="0.82" style="stop-color:rgb(69,208,69);stop-opacity:1"/><stop offset="1" style="stop-color:rgb(0,188,87);stop-opacity:1"/></radialGradient>
    </defs>
</svg>
