<?xml version="1.0" encoding="UTF-8" standalone="no"?>
<!DOCTYPE svg PUBLIC "-//W3C//DTD SVG 1.1//EN" "http://www.w3.org/Graphics/SVG/1.1/DTD/svg11.dtd">
<svg width="100%" height="100%" viewBox="0 0 100 100" version="1.1" xmlns="http://www.w3.org/2000/svg" xmlns:xlink="http://www.w3.org/1999/xlink" xml:space="preserve" xmlns:serif="http://www.serif.com/" style="fill-rule:evenodd;clip-rule:evenodd;stroke-linejoin:round;stroke-miterlimit:2;">
    <g id="Steam-Button" serif:id="Steam Button">
        <g>
            <g>
                <clipPath id="_clip1">
                    <rect x="0" y="0" width="100" height="100"/>
                </clipPath>
                <g clip-path="url(#_clip1)">
                    <g id="Background-Forest" serif:id="Background Forest" transform="matrix(0.169168,0,0,0.169106,-11.3683,3.64141)">
                        <g transform="matrix(1.01697,0,0,1.22606,-7.80764,-48.6039)">
                            <g id="Layer-1" serif:id="Layer 1">
                                <rect x="0" y="0" width="920" height="430" style="fill:rgb(168,225,72);"/>
                            </g>
                        </g>
                        <g id="Layer-2" serif:id="Layer 2" transform="matrix(1,0,0,1,0,-20)">
                            <g transform="matrix(1.63492,0,0,1.24488,-973.872,-13.2634)">
                                <path d="M718,205.359L718,394.641C718,455.55 680.361,505 634,505C587.639,505 550,455.55 550,394.641L550,205.359C550,144.45 587.639,95 634,95C680.361,95 718,144.45 718,205.359Z" style="fill:rgb(141,210,27);"/>
                            </g>
                            <g transform="matrix(1.63492,0,0,1.24488,-747.31,-47.6384)">
                                <path d="M718,205.359L718,394.641C718,455.55 680.361,505 634,505C587.639,505 550,455.55 550,394.641L550,205.359C550,144.45 587.639,95 634,95C680.361,95 718,144.45 718,205.359Z" style="fill:rgb(141,210,27);"/>
                            </g>
                            <g transform="matrix(1.52859,0,0,1.16392,-501.331,46.3706)">
                                <path d="M718,205.359L718,394.641C718,455.55 680.361,505 634,505C587.639,505 550,455.55 550,394.641L550,205.359C550,144.45 587.639,95 634,95C680.361,95 718,144.45 718,205.359Z" style="fill:rgb(141,210,27);"/>
                            </g>
                            <g transform="matrix(1.52859,0,0,1.16392,-316.956,-63.0043)">
                                <path d="M718,205.359L718,394.641C718,455.55 680.361,505 634,505C587.639,505 550,455.55 550,394.641L550,205.359C550,144.45 587.639,95 634,95C680.361,95 718,144.45 718,205.359Z" style="fill:rgb(141,210,27);"/>
                            </g>
                            <g id="Tree" transform="matrix(0.823602,0,0,0.823602,534.226,-191.489)">
                                <g transform="matrix(0.801131,0,0,0.801131,9.14797,61.2627)">
                                    <path d="M46,245L66,285L26,285L46,245Z" style="fill:rgb(141,210,27);"/>
                                </g>
                                <g transform="matrix(1,0,0,1,0,24.576)">
                                    <path d="M46,245L66,285L26,285L46,245Z" style="fill:rgb(141,210,27);"/>
                                </g>
                                <g transform="matrix(1,0,0,0.577655,0,148.362)">
                                    <rect x="39.072" y="258.94" width="11.855" height="69.246" style="fill:rgb(141,210,27);"/>
                                </g>
                            </g>
                            <g id="Tree1" serif:id="Tree" transform="matrix(1.23375,0,0,1.23375,173.362,-293.023)">
                                <g transform="matrix(0.801131,0,0,0.801131,9.14797,61.2627)">
                                    <path d="M46,245L66,285L26,285L46,245Z" style="fill:rgb(141,210,27);"/>
                                </g>
                                <g transform="matrix(1,0,0,1,0,24.576)">
                                    <path d="M46,245L66,285L26,285L46,245Z" style="fill:rgb(141,210,27);"/>
                                </g>
                                <g transform="matrix(1,0,0,0.577655,0,148.362)">
                                    <rect x="39.072" y="258.94" width="11.855" height="69.246" style="fill:rgb(141,210,27);"/>
                                </g>
                            </g>
                            <g id="Tree2" serif:id="Tree" transform="matrix(1.23375,0,0,1.23375,428.156,-239.895)">
                                <g transform="matrix(0.801131,0,0,0.801131,9.14797,61.2627)">
                                    <path d="M46,245L66,285L26,285L46,245Z" style="fill:rgb(141,210,27);"/>
                                </g>
                                <g transform="matrix(1,0,0,1,0,24.576)">
                                    <path d="M46,245L66,285L26,285L46,245Z" style="fill:rgb(141,210,27);"/>
                                </g>
                                <g transform="matrix(1,0,0,0.577655,0,148.362)">
                                    <rect x="39.072" y="258.94" width="11.855" height="69.246" style="fill:rgb(141,210,27);"/>
                                </g>
                            </g>
                        </g>
                        <g id="Layer-3" serif:id="Layer 3" transform="matrix(1,0,0,1,0,158.495)">
                            <g transform="matrix(1.49718,0,0,1.14,-934.116,-54.3)">
                                <path d="M718,205.359L718,394.641C718,455.55 680.361,505 634,505C587.639,505 550,455.55 550,394.641L550,205.359C550,144.45 587.639,95 634,95C680.361,95 718,144.45 718,205.359Z" style="fill:rgb(111,187,0);"/>
                            </g>
                            <g transform="matrix(1.49718,0,0,1.14,-757.554,-4.30004)">
                                <path d="M718,205.359L718,394.641C718,455.55 680.361,505 634,505C587.639,505 550,455.55 550,394.641L550,205.359C550,144.45 587.639,95 634,95C680.361,95 718,144.45 718,205.359Z" style="fill:rgb(111,187,0);"/>
                            </g>
                            <g transform="matrix(1.49718,0,0,1.14,-563.804,-43.3625)">
                                <path d="M718,205.359L718,394.641C718,455.55 680.361,505 634,505C587.639,505 550,455.55 550,394.641L550,205.359C550,144.45 587.639,95 634,95C680.361,95 718,144.45 718,205.359Z" style="fill:rgb(111,187,0);"/>
                            </g>
                            <g transform="matrix(1.49718,0,0,1.23479,-340.366,-30.2953)">
                                <path d="M718,196.887L718,403.113C718,459.346 680.361,505 634,505C587.639,505 550,459.346 550,403.113L550,196.887C550,140.654 587.639,95 634,95C680.361,95 718,140.654 718,196.887Z" style="fill:rgb(111,187,0);"/>
                            </g>
                            <g id="Tree3" serif:id="Tree" transform="matrix(1.57858,0,0,1.57858,24.853,-413.246)">
                                <g transform="matrix(0.801131,0,0,0.801131,9.14797,61.2627)">
                                    <path d="M46,245L66,285L26,285L46,245Z" style="fill:rgb(111,187,0);"/>
                                </g>
                                <g transform="matrix(1,0,0,1,0,24.576)">
                                    <path d="M46,245L66,285L26,285L46,245Z" style="fill:rgb(111,187,0);"/>
                                </g>
                                <g transform="matrix(1,0,0,0.577655,0,148.362)">
                                    <rect x="39.072" y="258.94" width="11.855" height="69.246" style="fill:rgb(111,187,0);"/>
                                </g>
                            </g>
                            <g id="Tree4" serif:id="Tree" transform="matrix(1.31054,0,0,1.31054,512.959,-322.667)">
                                <g transform="matrix(0.801131,0,0,0.801131,9.14797,61.2627)">
                                    <path d="M46,245L66,285L26,285L46,245Z" style="fill:rgb(111,187,0);"/>
                                </g>
                                <g transform="matrix(1,0,0,1,0,24.576)">
                                    <path d="M46,245L66,285L26,285L46,245Z" style="fill:rgb(111,187,0);"/>
                                </g>
                                <g transform="matrix(1,0,0,0.577655,0,148.362)">
                                    <rect x="39.072" y="258.94" width="11.855" height="69.246" style="fill:rgb(111,187,0);"/>
                                </g>
                            </g>
                        </g>
                        <g id="Layer-4" serif:id="Layer 4" transform="matrix(1,0,0,1,66.8588,126.442)">
                            <g transform="matrix(1.34242,0,0,0.766677,-812.997,246.978)">
                                <path d="M718,242.134L718,357.866C718,439.071 680.361,505 634,505C587.639,505 550,439.071 550,357.866L550,242.134C550,160.929 587.639,95 634,95C680.361,95 718,160.929 718,242.134Z" style="fill:rgb(78,162,0);"/>
                            </g>
                            <g transform="matrix(1.34242,0,0,0.766677,-648.934,231.666)">
                                <path d="M718,242.134L718,357.866C718,439.071 680.361,505 634,505C587.639,505 550,439.071 550,357.866L550,242.134C550,160.929 587.639,95 634,95C680.361,95 718,160.929 718,242.134Z" style="fill:rgb(78,162,0);"/>
                            </g>
                            <g transform="matrix(1.55595,0,0,0.888628,-660.127,220.08)">
                                <path d="M718,242.134L718,357.866C718,439.071 680.361,505 634,505C587.639,505 550,439.071 550,357.866L550,242.134C550,160.929 587.639,95 634,95C680.361,95 718,160.929 718,242.134Z" style="fill:rgb(78,162,0);"/>
                            </g>
                            <g transform="matrix(1.55595,0,0,0.888628,-428.877,232.58)">
                                <path d="M718,242.134L718,357.866C718,439.071 680.361,505 634,505C587.639,505 550,439.071 550,357.866L550,242.134C550,160.929 587.639,95 634,95C680.361,95 718,160.929 718,242.134Z" style="fill:rgb(78,162,0);"/>
                            </g>
                            <g id="Tree5" serif:id="Tree" transform="matrix(1.5849,0,0,1.5849,-15.2074,-201.899)">
                                <g transform="matrix(0.801131,0,0,0.801131,9.14797,61.2627)">
                                    <path d="M46,245L66,285L26,285L46,245Z" style="fill:rgb(78,162,0);"/>
                                </g>
                                <g transform="matrix(1,0,0,1,0,24.576)">
                                    <path d="M46,245L66,285L26,285L46,245Z" style="fill:rgb(78,162,0);"/>
                                </g>
                                <g transform="matrix(1,0,0,0.68229,0,121.268)">
                                    <rect x="39.072" y="258.94" width="11.855" height="69.246" style="fill:rgb(78,162,0);"/>
                                </g>
                            </g>
                            <g id="Tree6" serif:id="Tree" transform="matrix(1.5849,0,0,1.5849,453.916,-165.84)">
                                <g transform="matrix(0.801131,0,0,0.801131,9.14797,61.2627)">
                                    <path d="M46,245L66,285L26,285L46,245Z" style="fill:rgb(78,162,0);"/>
                                </g>
                                <g transform="matrix(1,0,0,1,0,24.576)">
                                    <path d="M46,245L66,285L26,285L46,245Z" style="fill:rgb(78,162,0);"/>
                                </g>
                                <g transform="matrix(1,0,0,0.577655,0,148.362)">
                                    <rect x="39.072" y="258.94" width="11.855" height="69.246" style="fill:rgb(78,162,0);"/>
                                </g>
                            </g>
                        </g>
                        <g id="Layer-5" serif:id="Layer 5" transform="matrix(1,0,0,1,-5.9113,14.6252)">
                            <g id="Cloud" transform="matrix(1.01352,0,0,1.01352,-278.937,139.208)">
                                <g transform="matrix(0.398374,0,0,1,522.138,0)">
                                    <path d="M823,324.2L823,332.8C823,342.293 803.661,350 779.84,350L743.16,350C719.339,350 700,342.293 700,332.8L700,324.2C700,314.707 719.339,307 743.16,307L779.84,307C803.661,307 823,314.707 823,324.2Z" style="fill:rgb(245,255,229);"/>
                                </g>
                                <g transform="matrix(0.512195,0,0,1.5814,396.463,-193.488)">
                                    <path d="M823,322.941L823,334.059C823,342.857 800.954,350 773.8,350L749.2,350C722.046,350 700,342.857 700,334.059L700,322.941C700,314.143 722.046,307 749.2,307L773.8,307C800.954,307 823,314.143 823,322.941Z" style="fill:rgb(245,255,229);"/>
                                </g>
                                <g transform="matrix(1.11382,0,0,1,-46.6749,28.9999)">
                                    <path d="M823,324.2L823,332.8C823,342.293 816.083,350 807.563,350L715.437,350C706.917,350 700,342.293 700,332.8L700,324.2C700,314.707 706.917,307 715.437,307L807.563,307C816.083,307 823,314.707 823,324.2Z" style="fill:rgb(245,255,229);"/>
                                </g>
                            </g>
                            <g id="Cloud1" serif:id="Cloud" transform="matrix(0.928177,0,0,0.928177,-685.192,-186.01)">
                                <g transform="matrix(0.609756,0,0,1,348.171,6)">
                                    <path d="M823,324.2L823,332.8C823,342.293 810.365,350 794.802,350L728.198,350C712.635,350 700,342.293 700,332.8L700,324.2C700,314.707 712.635,307 728.198,307L794.802,307C810.365,307 823,314.707 823,324.2Z" style="fill:rgb(245,255,229);"/>
                                </g>
                                <g transform="matrix(0.609756,0,0,1,387.171,57.9998)">
                                    <path d="M823,324.2L823,332.8C823,342.293 810.365,350 794.802,350L728.198,350C712.635,350 700,342.293 700,332.8L700,324.2C700,314.707 712.635,307 728.198,307L794.802,307C810.365,307 823,314.707 823,324.2Z" style="fill:rgb(245,255,229);"/>
                                </g>
                                <g transform="matrix(1.47154,0,0,1,-287.081,29.9999)">
                                    <path d="M823,324.2L823,332.8C823,342.293 817.765,350 811.316,350L711.684,350C705.235,350 700,342.293 700,332.8L700,324.2C700,314.707 705.235,307 711.684,307L811.316,307C817.765,307 823,314.707 823,324.2Z" style="fill:rgb(245,255,229);"/>
                                </g>
                            </g>
                            <g id="Cloud2" serif:id="Cloud" transform="matrix(1.20006,0,0,1.20006,-351.726,-412.436)">
                                <g transform="matrix(0.594059,0,0,1.21782,381.044,-32.0045)">
                                    <path d="M823,324.2L823,332.8C823,342.293 807.206,350 787.753,350L735.247,350C715.794,350 700,342.293 700,332.8L700,324.2C700,314.707 715.794,307 735.247,307L787.753,307C807.206,307 823,314.707 823,324.2Z" style="fill:rgb(245,255,229);"/>
                                </g>
                                <g transform="matrix(1,0,0,1.21782,65.2226,4.53008)">
                                    <path d="M823,324.2L823,332.8C823,342.293 813.618,350 802.061,350L720.939,350C709.382,350 700,342.293 700,332.8L700,324.2C700,314.707 709.382,307 720.939,307L802.061,307C813.618,307 823,314.707 823,324.2Z" style="fill:rgb(245,255,229);"/>
                                </g>
                            </g>
                        </g>
                    </g>
                    <g transform="matrix(1.71423,0,0,1.71423,-44.5679,-17.2843)">
                        <circle cx="68" cy="27" r="7"/>
                    </g>
                    <g id="Logo" transform="matrix(0.906833,0,0,0.90625,20.9999,20.9799)">
                        <g transform="matrix(1,0,0,1,0,4.41379)">
                            <path d="M-4.389,32L-4.389,27.586C-4.389,7.496 11.89,-8.793 31.977,-8.805L31.983,-8.805C52.069,-8.793 68.348,7.496 68.348,27.586L68.348,32C68.348,52.09 52.069,68.379 31.983,68.391L31.977,68.391C11.89,68.379 -4.389,52.09 -4.389,32Z"/>
                        </g>
                        <g transform="matrix(1.10274,0,0,1.10345,-18.7186,-23.1502)">
                            <circle cx="46" cy="49.98" r="29" style="fill:rgb(88,101,242);"/>
                        </g>
                        <g transform="matrix(1.37842,0,0,1.37931,9.94708,9.95324)">
                            <g>
                                <g>
                                    <g transform="matrix(0.0320001,0,0,0.032,1.42381,32.4946)">
                                        <path d="M240,-240L148,-148C135.333,-135.333 120.833,-132.5 104.5,-139.5C88.167,-146.5 80,-159 80,-177L80,-800C80,-822 87.833,-840.833 103.5,-856.5C119.167,-872.167 138,-880 160,-880L800,-880C822,-880 840.833,-872.167 856.5,-856.5C872.167,-840.833 880,-822 880,-800L880,-320C880,-298 872.167,-279.167 856.5,-263.5C840.833,-247.833 822,-240 800,-240L240,-240ZM280,-400L520,-400C531.333,-400 540.833,-403.833 548.5,-411.5C556.167,-419.167 560,-428.667 560,-440C560,-451.333 556.167,-460.833 548.5,-468.5C540.833,-476.167 531.333,-480 520,-480L280,-480C268.667,-480 259.167,-476.167 251.5,-468.5C243.833,-460.833 240,-451.333 240,-440C240,-428.667 243.833,-419.167 251.5,-411.5C259.167,-403.833 268.667,-400 280,-400ZM280,-520L680,-520C691.333,-520 700.833,-523.833 708.5,-531.5C716.167,-539.167 720,-548.667 720,-560C720,-571.333 716.167,-580.833 708.5,-588.5C700.833,-596.167 691.333,-600 680,-600L280,-600C268.667,-600 259.167,-596.167 251.5,-588.5C243.833,-580.833 240,-571.333 240,-560C240,-548.667 243.833,-539.167 251.5,-531.5C259.167,-523.833 268.667,-520 280,-520ZM280,-640L680,-640C691.333,-640 700.833,-643.833 708.5,-651.5C716.167,-659.167 720,-668.667 720,-680C720,-691.333 716.167,-700.833 708.5,-708.5C700.833,-716.167 691.333,-720 680,-720L280,-720C268.667,-720 259.167,-716.167 251.5,-708.5C243.833,-700.833 240,-691.333 240,-680C240,-668.667 243.833,-659.167 251.5,-651.5C259.167,-643.833 268.667,-640 280,-640Z" style="fill:rgb(245,255,229);fill-rule:nonzero;"/>
                                    </g>
                                </g>
                            </g>
                        </g>
                    </g>
                    <g transform="matrix(1.14286,0,0,1.14286,-5.71429,-1.85714)">
                        <circle cx="68" cy="27" r="7" style="fill:rgb(255,33,81);"/>
                    </g>
                </g>
            </g>
        </g>
    </g>
</svg>
