<?xml version="1.0" encoding="UTF-8" standalone="no"?>
<!DOCTYPE svg PUBLIC "-//W3C//DTD SVG 1.1//EN" "http://www.w3.org/Graphics/SVG/1.1/DTD/svg11.dtd">
<svg width="100%" height="100%" viewBox="0 0 100 100" version="1.1" xmlns="http://www.w3.org/2000/svg" xmlns:xlink="http://www.w3.org/1999/xlink" xml:space="preserve" xmlns:serif="http://www.serif.com/" style="fill-rule:evenodd;clip-rule:evenodd;stroke-linejoin:round;stroke-miterlimit:2;">
    <g id="Steam-Button" serif:id="Steam Button">
        <g>
            <g id="background-level-editor" transform="matrix(1,0,0,1,-270,-180)">
                <g id="background-pack-lemon-difficult">
                    <g>
                        <g>
                            <clipPath id="_clip1">
                                <rect x="270" y="180" width="100" height="100"/>
                            </clipPath>
                            <g clip-path="url(#_clip1)">
                                <g id="Background" transform="matrix(0.412391,0,0,0.682116,192.277,102.697)">
                                    <rect x="188.469" y="113.328" width="242.489" height="146.603" style="fill:rgb(76,125,255);"/>
                                </g>
                                <g transform="matrix(4.92046e-17,-1.33655,0.532982,-4.92046e-17,152.647,1532.28)">
                                    <g transform="matrix(1,-1.2326e-32,0,1,0,-48.7821)">
                                        <path d="M989,245.4L989,284.6C989,289.236 987.499,293 985.65,293L936.35,293C934.501,293 933,289.236 933,284.6L933,245.4C933,240.764 934.501,237 936.35,237L985.65,237C987.499,237 989,240.764 989,245.4Z" style="fill:url(#_Linear2);"/>
                                    </g>
                                    <g transform="matrix(1,-3.69779e-32,0,1,-21.1141,13.0828)">
                                        <path d="M989,245.4L989,275.219C989,279.855 987.499,283.619 985.65,283.619L954.114,283.619C952.265,283.619 950.764,279.855 950.764,275.219L950.764,245.4C950.764,240.764 952.265,237 954.114,237L985.65,237C987.499,237 989,240.764 989,245.4Z" style="fill:url(#_Linear3);"/>
                                    </g>
                                </g>
                                <g transform="matrix(2.64795e-17,-0.719265,0.286825,-2.64795e-17,248.399,956.353)">
                                    <path d="M989,245.4L989,284.6C989,289.236 987.499,293 985.65,293L936.35,293C934.501,293 933,289.236 933,284.6L933,245.4C933,240.764 934.501,237 936.35,237L985.65,237C987.499,237 989,240.764 989,245.4Z" style="fill:url(#_Linear4);"/>
                                </g>
                                <g transform="matrix(3.58373e-17,-0.791833,0.206567,-3.58374e-17,286.476,1020.78)">
                                    <path d="M989,245.4L989,284.6C989,289.236 987.499,293 985.65,293L936.35,293C934.501,293 933,289.236 933,284.6L933,245.4C933,240.764 934.501,237 936.35,237L985.65,237C987.499,237 989,240.764 989,245.4Z" style="fill:url(#_Linear5);"/>
                                </g>
                                <g transform="matrix(3.96935e-17,-1.02199,0.373751,-3.96935e-17,263.421,1235.52)">
                                    <path d="M989,245.4L989,284.6C989,289.236 987.499,293 985.65,293L936.35,293C934.501,293 933,289.236 933,284.6L933,245.4C933,240.764 934.501,237 936.35,237L985.65,237C987.499,237 989,240.764 989,245.4Z" style="fill:url(#_Linear6);"/>
                                </g>
                                <g transform="matrix(1,0,0,1,-8,1)">
                                    <g transform="matrix(2.49204,0,0,0.899252,202.477,194.511)">
                                        <path d="M69,8.25L69,12.75C69,13.992 68.636,15 68.188,15L60.812,15C60.364,15 60,13.992 60,12.75L60,8.25C60,7.008 60.364,6 60.812,6L68.188,6C68.636,6 69,7.008 69,8.25Z" style="fill:white;"/>
                                        <g transform="matrix(1,0,0,1,-25.8427,65.8024)">
                                            <path d="M69,8.25L69,12.75C69,13.992 68.636,15 68.188,15L60.812,15C60.364,15 60,13.992 60,12.75L60,8.25C60,7.008 60.364,6 60.812,6L68.188,6C68.636,6 69,7.008 69,8.25Z" style="fill:white;"/>
                                        </g>
                                    </g>
                                    <g transform="matrix(1.02772,0,0,0.899252,293.42,188.73)">
                                        <path d="M69,8.25L69,12.75C69,13.992 68.118,15 67.031,15L61.969,15C60.882,15 60,13.992 60,12.75L60,8.25C60,7.008 60.882,6 61.969,6L67.031,6C68.118,6 69,7.008 69,8.25Z" style="fill:white;"/>
                                        <g transform="matrix(1,0,0,1,-62.6641,65.8024)">
                                            <path d="M69,8.25L69,12.75C69,13.992 68.118,15 67.031,15L61.969,15C60.882,15 60,13.992 60,12.75L60,8.25C60,7.008 60.882,6 61.969,6L67.031,6C68.118,6 69,7.008 69,8.25Z" style="fill:white;"/>
                                        </g>
                                    </g>
                                    <g transform="matrix(1.02772,0,0,0.899252,299.975,191.188)">
                                        <path d="M69,8.25L69,12.75C69,13.992 68.118,15 67.031,15L61.969,15C60.882,15 60,13.992 60,12.75L60,8.25C60,7.008 60.882,6 61.969,6L67.031,6C68.118,6 69,7.008 69,8.25Z" style="fill:white;"/>
                                        <g transform="matrix(1,0,0,1,-62.6641,65.8024)">
                                            <path d="M69,8.25L69,12.75C69,13.992 68.118,15 67.031,15L61.969,15C60.882,15 60,13.992 60,12.75L60,8.25C60,7.008 60.882,6 61.969,6L67.031,6C68.118,6 69,7.008 69,8.25Z" style="fill:white;"/>
                                        </g>
                                    </g>
                                </g>
                                <g transform="matrix(1,0,0,1,-0.0909317,0.895103)">
                                    <g transform="matrix(2.49204,0,0,0.899252,125.14,183.616)">
                                        <path d="M69,8.25L69,12.75C69,13.992 68.636,15 68.188,15L60.812,15C60.364,15 60,13.992 60,12.75L60,8.25C60,7.008 60.364,6 60.812,6L68.188,6C68.636,6 69,7.008 69,8.25Z" style="fill:white;"/>
                                    </g>
                                    <g transform="matrix(1.02772,0,0,0.899252,216.083,177.835)">
                                        <path d="M69,8.25L69,12.75C69,13.992 68.118,15 67.031,15L61.969,15C60.882,15 60,13.992 60,12.75L60,8.25C60,7.008 60.882,6 61.969,6L67.031,6C68.118,6 69,7.008 69,8.25Z" style="fill:white;"/>
                                    </g>
                                    <g transform="matrix(1.02772,0,0,0.899252,222.637,180.293)">
                                        <path d="M69,8.25L69,12.75C69,13.992 68.118,15 67.031,15L61.969,15C60.882,15 60,13.992 60,12.75L60,8.25C60,7.008 60.882,6 61.969,6L67.031,6C68.118,6 69,7.008 69,8.25Z" style="fill:white;"/>
                                    </g>
                                </g>
                            </g>
                        </g>
                    </g>
                </g>
            </g>
            <g id="Logo-Group" serif:id="Logo Group" transform="matrix(0.906833,0,0,0.90625,20.9999,21)">
                <g id="Logo">
                    <g id="Logo-Group1" serif:id="Logo Group">
                        <g id="Circle">
                            <g transform="matrix(1,0,0,1,0,4.41379)">
                                <path d="M-4.389,32L-4.389,27.586C-4.389,7.496 11.89,-8.793 31.977,-8.805L31.983,-8.805C52.069,-8.793 68.348,7.496 68.348,27.586L68.348,32C68.348,52.09 52.069,68.379 31.983,68.391L31.977,68.391C11.89,68.379 -4.389,52.09 -4.389,32Z"/>
                            </g>
                            <path d="M1.305,41.202C5.259,54.386 17.488,64 31.959,64C49.632,64 63.959,49.673 63.959,32C63.959,14.327 49.632,0 31.959,0C15.001,0 1.124,13.193 0.028,29.874C2.102,33.351 2.907,35.502 1.303,41.202L1.305,41.202Z" style="fill:url(#_Linear7);fill-rule:nonzero;"/>
                        </g>
                        <path d="M30.31,23.985L30.313,24.143L22.483,35.518C21.215,35.46 19.943,35.683 18.735,36.18C18.209,36.394 17.707,36.662 17.237,36.98L0.042,29.893C0.042,29.893 -0.356,36.439 1.302,41.317L13.458,46.333C14.058,49.061 15.938,51.453 18.7,52.603C23.194,54.47 28.43,52.313 30.303,47.821C30.786,46.664 31.019,45.418 30.987,44.165L42.18,36.16L42.455,36.165C49.16,36.165 54.61,30.699 54.61,23.985C54.61,17.271 49.17,11.825 42.455,11.811C35.753,11.811 30.3,17.271 30.3,23.985L30.31,23.985ZM28.43,47.035C26.976,50.535 22.964,52.182 19.477,50.729C17.93,50.079 16.675,48.882 15.953,47.367L19.91,49.007C20.524,49.262 21.182,49.394 21.847,49.394C23.879,49.394 25.721,48.165 26.501,46.288C27.565,43.733 26.34,40.754 23.786,39.687L19.686,37.992C21.264,37.392 23.058,37.372 24.736,38.069C26.436,38.772 27.736,40.096 28.432,41.789C29.128,43.482 29.124,45.349 28.422,47.035M42.466,32.1C38.022,32.088 34.372,28.431 34.368,23.987C34.373,19.544 38.023,15.888 42.466,15.876C46.91,15.887 50.561,19.543 50.566,23.987C50.562,28.431 46.91,32.089 42.466,32.1M36.398,23.974C36.395,20.635 39.139,17.884 42.478,17.879C45.833,17.879 48.562,20.609 48.562,23.974C48.564,27.314 45.818,30.064 42.478,30.067C39.139,30.062 36.395,27.313 36.397,23.974L36.398,23.974Z" style="fill:white;fill-rule:nonzero;"/>
                    </g>
                </g>
            </g>
        </g>
    </g>
    <defs>
        <linearGradient id="_Linear2" x1="0" y1="0" x2="1" y2="0.177271" gradientUnits="userSpaceOnUse" gradientTransform="matrix(55.5751,1.87624,-1.87624,55.5751,933,263.335)"><stop offset="0" style="stop-color:rgb(76,125,255);stop-opacity:1"/><stop offset="1" style="stop-color:rgb(76,169,255);stop-opacity:1"/></linearGradient>
        <linearGradient id="_Linear3" x1="0" y1="0" x2="1" y2="0.177271" gradientUnits="userSpaceOnUse" gradientTransform="matrix(55.5751,1.87624,-1.87624,55.5751,933,263.335)"><stop offset="0" style="stop-color:rgb(76,125,255);stop-opacity:1"/><stop offset="1" style="stop-color:rgb(76,169,255);stop-opacity:1"/></linearGradient>
        <linearGradient id="_Linear4" x1="0" y1="0" x2="1" y2="0.17727" gradientUnits="userSpaceOnUse" gradientTransform="matrix(55.5751,1.87624,-1.87624,55.5751,933,263.335)"><stop offset="0" style="stop-color:rgb(76,125,255);stop-opacity:1"/><stop offset="1" style="stop-color:rgb(76,169,255);stop-opacity:1"/></linearGradient>
        <linearGradient id="_Linear5" x1="0" y1="0" x2="1" y2="0.989791" gradientUnits="userSpaceOnUse" gradientTransform="matrix(55.5616,4.38314,-4.38314,55.5616,933,263.335)"><stop offset="0" style="stop-color:rgb(76,125,255);stop-opacity:1"/><stop offset="1" style="stop-color:rgb(76,169,255);stop-opacity:1"/></linearGradient>
        <linearGradient id="_Linear6" x1="0" y1="0" x2="1" y2="0.48824" gradientUnits="userSpaceOnUse" gradientTransform="matrix(55.5616,4.38314,-4.38314,55.5616,933,263.335)"><stop offset="0" style="stop-color:rgb(76,125,255);stop-opacity:1"/><stop offset="1" style="stop-color:rgb(76,169,255);stop-opacity:1"/></linearGradient>
        <linearGradient id="_Linear7" x1="0" y1="0" x2="1" y2="0" gradientUnits="userSpaceOnUse" gradientTransform="matrix(3.91887e-15,64,-64,3.91887e-15,31.9935,0)"><stop offset="0" style="stop-color:rgb(17,29,46);stop-opacity:1"/><stop offset="0.21" style="stop-color:rgb(5,24,57);stop-opacity:1"/><stop offset="0.41" style="stop-color:rgb(10,27,72);stop-opacity:1"/><stop offset="0.58" style="stop-color:rgb(19,46,98);stop-opacity:1"/><stop offset="0.74" style="stop-color:rgb(20,75,126);stop-opacity:1"/><stop offset="0.87" style="stop-color:rgb(19,100,151);stop-opacity:1"/><stop offset="1" style="stop-color:rgb(19,135,184);stop-opacity:1"/></linearGradient>
    </defs>
</svg>
